<svg xmlns="http://www.w3.org/2000/svg" viewBox="0 -0.5 75 75" shape-rendering="crispEdges">
<metadata>Made with Pixels to Svg https://codepen.io/shshaw/pen/XbxvNj</metadata>
<path stroke="#000000" d="M55 36h20M40 37h35M36 38h39M36 39h22M36 40h7M36 41h3M36 42h3M35 43h4M35 44h4M35 45h4M35 46h3M35 47h3M35 48h3M35 49h3M35 50h3M35 51h3M35 52h3M35 53h3M35 54h3M35 55h3M35 56h3M35 57h3M35 58h3M35 59h3M35 60h3M35 61h3M35 62h3M35 63h3M35 64h3M35 65h3M35 66h3M35 67h4M35 68h4M35 69h4M36 70h3M36 71h3M36 72h3M36 73h3M36 74h3" />
</svg>