<svg xmlns="http://www.w3.org/2000/svg" viewBox="0 -0.5 75 100" shape-rendering="crispEdges">
<metadata>Made with Pixels to Svg https://codepen.io/shshaw/pen/XbxvNj</metadata>
<path stroke="#000000" d="M36 0h3M36 1h3M36 2h3M36 3h3M36 4h3M36 5h3M36 6h3M36 7h3M36 8h3M36 9h3M36 10h3M36 11h3M36 12h3M36 13h3M36 14h3M36 15h3M36 16h4M36 17h4M36 18h4M37 19h3M37 20h3M37 21h3M37 22h3M37 23h3M37 24h3M37 25h3M37 26h3M37 27h3M37 28h3M37 29h3M37 30h3M37 31h3M37 32h3M37 33h3M37 34h3M37 35h3M37 36h3M37 37h3M37 38h3M37 39h3M37 40h3M36 41h5M28 42h28M24 43h32M22 44h34M22 45h8M22 46h4M37 57h17M29 58h25M22 59h32M22 60h18M22 61h9M35 61h4M35 62h4M36 63h3M36 64h3M36 65h3M36 66h3M36 67h3M36 68h3M36 69h3M36 70h3M36 71h3M36 72h3M36 73h3M36 74h3M36 75h3M36 76h3M36 77h3M36 78h3M36 79h3M36 80h3M36 81h3M36 82h3M36 83h4M36 84h4M36 85h4M36 86h4M36 87h4M36 88h4M36 89h4M36 90h4M36 91h3M36 92h3M36 93h3M36 94h3M36 95h3M36 96h3M36 97h3M36 98h3M36 99h3" />
<path stroke="rgba(0,0,0,0.00784313725490196)" d="M39 94h1M39 95h1M39 96h1M39 97h1M39 98h1" />
</svg>