<svg xmlns="http://www.w3.org/2000/svg" viewBox="0 -0.5 75 100" shape-rendering="crispEdges">
<metadata>Made with Pixels to Svg https://codepen.io/shshaw/pen/XbxvNj</metadata>
<path stroke="#000000" d="M36 0h3M36 1h3M36 2h3M36 3h3M36 4h3M36 5h3M36 6h3M36 7h3M36 8h3M36 9h3M36 10h3M36 11h3M36 12h3M36 13h3M36 14h3M36 15h3M36 16h4M36 17h4M36 18h4M25 19h5M37 19h3M24 20h7M37 20h3M23 21h4M28 21h3M37 21h3M23 22h3M29 22h2M37 22h3M23 23h8M37 23h3M17 24h4M24 24h7M32 24h4M37 24h3M14 25h7M24 25h2M31 25h5M37 25h3M9 26h2M13 26h6M24 26h3M30 26h4M37 26h3M9 27h2M13 27h2M16 27h2M25 27h2M30 27h4M37 27h3M9 28h2M16 28h3M25 28h2M31 28h4M37 28h3M9 29h2M17 29h2M25 29h3M33 29h2M37 29h3M9 30h2M17 30h2M22 30h2M26 30h2M33 30h2M37 30h3M9 31h3M17 31h7M26 31h3M30 31h5M37 31h3M10 32h2M16 32h7M27 32h2M30 32h5M37 32h3M1 33h2M5 33h3M10 33h2M14 33h6M31 33h3M37 33h3M1 34h3M5 34h4M10 34h2M14 34h4M37 34h3M1 35h3M5 35h7M37 35h3M2 36h10M37 36h3M2 37h5M9 37h3M37 37h3M3 38h3M37 38h3M4 39h2M37 39h3M37 40h3M36 41h5M7 42h2M28 42h28M7 43h2M24 43h32M6 44h3M22 44h34M6 45h2M22 45h8M6 46h2M22 46h4M6 47h3M6 48h3M7 49h2M7 50h3M15 50h2M8 51h3M15 51h4M8 52h5M16 52h4M9 53h11M11 54h9M17 55h3M16 56h4M15 57h4M37 57h17M14 58h4M29 58h25M14 59h2M22 59h32M22 60h18M22 61h9M35 61h4M35 62h4M36 63h3M36 64h3M36 65h3M36 66h3M36 67h3M36 68h3M36 69h3M36 70h3M36 71h3M36 72h3M36 73h3M36 74h3M36 75h3M36 76h3M36 77h3M36 78h3M36 79h3M36 80h3M36 81h3M36 82h3M36 83h4M36 84h4M36 85h4M36 86h4M36 87h4M36 88h4M36 89h4M36 90h4M36 91h3M36 92h3M36 93h3M36 94h3M36 95h3M36 96h3M36 97h3M36 98h3M36 99h3" />
<path stroke="rgba(130,211,33,0.7490196078431373)" d="M43 38h15M22 39h15M55 39h6M21 40h5M59 40h3M60 41h2M60 42h2M60 43h2M60 44h2M60 45h2M43 46h8M59 46h2M20 47h1M31 47h18M51 47h9M21 48h6M35 54h26M30 55h7M59 55h3M21 56h2M60 56h2M60 57h2M60 58h2M60 59h2M60 60h2M59 61h2M42 62h18M20 63h1M28 63h8M39 63h1M21 64h14" />
<path stroke="rgba(130,210,35,0.8980392156862745)" d="M40 39h15M26 40h11M40 40h19M20 41h16M41 41h19M20 42h8M56 42h4M20 43h4M56 43h4M20 44h2M56 44h4M20 45h2M30 45h30M20 46h2M26 46h17M51 46h8M21 47h10M37 55h22M23 56h37M20 57h17M54 57h6M20 58h9M54 58h6M20 59h2M54 59h6M20 60h2M40 60h20M20 61h2M31 61h4M39 61h20M20 62h15M39 62h3M21 63h7" />
<path stroke="rgba(0,0,0,0.00784313725490196)" d="M39 94h1M39 95h1M39 96h1M39 97h1M39 98h1" />
</svg>