<svg xmlns="http://www.w3.org/2000/svg" viewBox="0 -0.5 75 75" shape-rendering="crispEdges">
<metadata>Made with Pixels to Svg https://codepen.io/shshaw/pen/XbxvNj</metadata>
<path stroke="#000000" d="M36 0h3M36 1h3M36 2h3M36 3h3M35 4h4M35 5h4M35 6h3M35 7h3M35 8h3M35 9h4M35 10h4M35 11h4M36 12h3M36 13h3M36 14h3M36 15h3M36 16h3M36 17h3M36 18h3M36 19h3M36 20h3M34 21h6M34 22h6M0 23h10M27 23h15M47 23h15M69 23h6M0 24h75M0 25h75M7 26h23M32 26h18M59 26h13M34 27h8M35 28h5M36 29h3M36 30h3M36 31h3M36 32h3M36 33h3M36 34h3M36 35h3M27 36h14M27 37h26M27 38h26M39 39h14M31 41h16M31 42h16M31 43h16M36 45h9M36 46h9M36 47h9" />
</svg>