<svg xmlns="http://www.w3.org/2000/svg" viewBox="0 -0.5 75 100" shape-rendering="crispEdges">
<metadata>Made with Pixels to Svg https://codepen.io/shshaw/pen/XbxvNj</metadata>
<path stroke="#000000" d="M36 0h3M36 1h3M36 2h3M36 3h3M36 4h3M35 5h4M35 6h4M35 7h4M29 8h3M35 8h3M18 9h2M27 9h5M35 9h3M17 10h3M21 10h4M27 10h4M35 10h3M17 11h3M21 11h4M27 11h3M35 11h3M15 12h4M21 12h5M27 12h4M35 12h3M15 13h2M21 13h2M24 13h3M28 13h4M35 13h3M8 14h6M15 14h2M21 14h2M24 14h3M29 14h4M35 14h3M4 15h10M15 15h5M21 15h2M24 15h4M30 15h4M35 15h4M1 16h9M12 16h8M21 16h7M31 16h3M35 16h4M0 17h6M8 17h3M13 17h5M21 17h8M32 17h2M36 17h3M0 18h3M4 18h2M9 18h2M13 18h4M21 18h3M27 18h7M36 18h3M4 19h2M9 19h2M13 19h4M21 19h2M27 19h7M36 19h3M4 20h2M9 20h3M13 20h7M21 20h2M36 20h3M4 21h2M10 21h10M36 21h3M4 22h2M7 22h2M10 22h5M36 22h3M4 23h5M10 23h4M36 23h3M3 24h5M10 24h3M36 24h3M1 25h5M36 25h3M1 26h4M36 26h3M1 27h2M36 27h3M11 28h2M36 28h3M11 29h2M36 29h3M11 30h2M36 30h3M11 31h3M18 31h2M36 31h3M11 32h3M18 32h2M36 32h3M12 33h3M18 33h3M36 33h3M12 34h5M18 34h3M36 34h11M13 35h8M33 35h16M15 36h6M31 36h19M17 37h5M29 37h10M44 37h7M16 38h6M28 38h7M46 38h6M13 39h9M27 39h7M47 39h6M13 40h5M25 40h7M48 40h6M25 41h5M49 41h5M24 42h5M50 42h5M23 43h5M51 43h4M23 44h4M51 44h5M23 45h4M52 45h4M22 46h4M52 46h4M22 47h4M32 47h7M46 47h3M53 47h4M22 48h3M31 48h9M46 48h3M53 48h4M22 49h3M29 49h11M46 49h3M54 49h3M21 50h4M28 50h7M36 50h5M46 50h3M54 50h3M21 51h4M27 51h6M37 51h5M45 51h4M54 51h3M21 52h4M27 52h5M38 52h5M45 52h4M54 52h3M21 53h3M27 53h3M38 53h10M54 53h3M21 54h3M26 54h4M39 54h9M54 54h3M21 55h4M26 55h4M40 55h7M53 55h4M21 56h4M26 56h3M53 56h4M22 57h3M53 57h4M22 58h4M53 58h3M22 59h4M53 59h3M22 60h4M52 60h4M23 61h4M52 61h4M23 62h5M52 62h4M24 63h4M51 63h4M24 64h5M50 64h5M25 65h5M50 65h4M26 66h6M49 66h5M27 67h8M47 67h6M28 68h12M46 68h6M30 69h21M33 70h17M37 71h11M37 72h4M37 73h4M37 74h4M37 75h4M37 76h3M37 77h3M37 78h3M37 79h3M37 80h3M37 81h3M37 82h3M37 83h3M37 84h3M37 85h3M37 86h3M37 87h3M37 88h3M37 89h3M36 90h4M36 91h4M36 92h4M36 93h3M36 94h3M36 95h3M36 96h3M36 97h3M36 98h3M36 99h3" />
<path stroke="rgba(242,252,36,0.8980392156862745)" d="M66 6h1M66 7h1M66 8h1M66 9h1M66 10h1M65 11h2M65 12h1M65 13h1M65 14h1M64 15h1M64 16h1M63 17h2M62 18h2M61 19h2M61 20h1M60 21h1M60 22h2M61 23h2M63 24h1M64 25h2M65 26h2M66 27h1M60 28h7M59 29h2M27 30h1M59 30h2M60 31h1M60 32h1M60 33h1M56 34h2M60 34h1M23 35h1M57 35h4M61 46h1M62 47h1M62 48h1M62 50h1M62 51h1M16 53h2M16 54h2M63 55h2M64 56h2M16 57h1M64 57h2M16 58h1M64 58h2M66 59h2M66 60h2M64 61h2M60 62h2M63 62h2M60 63h1M62 63h2M60 64h1M62 64h1M60 65h1M62 65h1M60 66h1M62 66h3M17 67h2M59 67h2M64 67h2M15 68h3M66 68h1M14 69h2M57 69h1M66 69h1M12 70h2M66 70h1M12 71h2M66 71h1M13 72h4M66 72h1M16 73h4M66 73h1M19 74h3M54 74h3M66 74h2M21 75h1M55 75h2M67 75h2M20 76h2M51 76h2M68 76h1M18 77h2M52 77h1M68 77h1M17 78h2M52 78h2M68 78h1M16 79h2M53 79h1M68 79h1M15 80h1M53 80h2M15 81h1M54 81h1M15 82h3M53 82h2M17 83h1M53 83h2M17 84h1M54 84h2M16 85h1M56 85h2M15 86h2M56 86h2M15 87h1M55 87h2M15 88h1M54 88h1M15 89h1M54 89h1M54 90h3M56 91h3M59 92h2M59 93h2M59 94h1M58 95h2" />
<path stroke="rgba(243,252,36,0.5764705882352941)" d="M40 28h4M46 28h4M40 29h11M29 30h3M39 30h7M48 30h3M32 31h2M39 31h6M48 31h3M27 32h1M29 32h2M34 32h2M39 32h6M46 32h1M48 32h3M27 33h1M30 33h3M34 33h2M39 33h8M48 33h1M52 33h4M27 34h2M30 34h6M50 34h1M30 35h3M49 35h5M22 36h2M26 36h5M50 36h4M56 36h3M22 37h2M26 37h3M51 37h3M56 37h4M22 38h1M25 38h3M52 38h3M56 38h4M22 39h5M53 39h2M56 39h4M18 40h7M54 40h1M56 40h5M17 41h8M54 41h1M56 41h5M17 42h7M55 42h6M17 43h6M59 43h2M17 44h6M60 44h1M16 45h7M15 46h7M15 47h7M60 47h2M15 48h7M15 49h7M60 49h2M15 50h6M57 50h2M18 51h1M57 51h4M20 52h1M57 52h4M18 53h3M57 53h2M61 53h1M20 54h1M57 54h3M18 55h1M20 55h1M57 55h6M19 56h2M57 56h6M18 57h4M57 57h6M20 58h2M56 58h7M17 59h1M20 59h2M56 59h6M17 60h5M56 60h5M16 61h7M56 61h4M16 62h7M56 62h4M16 63h8M55 63h5M16 64h8M55 64h5M16 65h4M22 65h3M54 65h5M21 66h5M54 66h5M20 67h7M53 67h3M19 68h9M52 68h4M19 69h11M51 69h5M22 70h11M50 70h4M22 71h6M29 71h8M48 71h6M56 71h1M22 72h6M29 72h8M41 72h14M56 72h1M22 73h6M29 73h1M32 73h5M41 73h12M54 73h1M25 74h3M33 74h4M41 74h10M52 74h1M25 75h3M33 75h2M36 75h1M41 75h10M52 75h1M36 76h1M40 76h8M36 77h1M40 77h5" />
<path stroke="rgba(242,252,36,0.9568627450980393)" d="M28 30h1M46 30h2M27 31h5M45 31h3M28 32h1M31 32h3M45 32h1M47 32h1M28 33h2M33 33h1M47 33h1M49 33h3M29 34h1M47 34h3M51 34h5M24 35h6M54 35h2M24 36h2M54 36h2M24 37h2M54 37h1M23 38h2M55 38h1M55 39h1M55 40h1M55 41h1M60 46h1M60 48h2M59 49h1M59 50h3M19 51h2M61 51h1M18 52h2M61 52h1M59 53h2M18 54h2M60 54h3M19 55h1M17 56h2M17 57h1M17 58h3M18 59h2M20 65h2M19 66h2M19 67h1M56 67h3M56 68h2M56 69h1M54 70h3M28 71h1M54 71h2M28 72h1M55 72h1M28 73h1M30 73h2M53 73h1M55 73h2M28 74h5M51 74h1M28 75h2M31 75h2M51 75h1" />
<path stroke="rgba(242,252,36,0.996078431372549)" d="M55 37h1" />
<path stroke="rgba(241,252,37,0.6549019607843137)" d="M55 43h4M56 44h4M56 45h2M56 46h3M57 47h3M57 48h1M57 49h1" />
<path stroke="rgba(242,252,36,0.9647058823529412)" d="M58 45h1M59 46h1M58 48h2M58 49h1" />
<path stroke="rgba(242,252,36,0.9176470588235294)" d="M59 45h1" />
<path stroke="rgba(244,250,37,0.18823529411764706)" d="M52 47h1M52 48h1M53 49h1" />
</svg>