<svg xmlns="http://www.w3.org/2000/svg" viewBox="0 -0.5 225 100" shape-rendering="crispEdges">
<metadata>Made with Pixels to Svg https://codepen.io/shshaw/pen/XbxvNj</metadata>
<path stroke="#000000" d="M49 0h3M139 0h3M49 1h3M111 1h6M139 1h3M195 1h2M49 2h3M106 2h11M139 2h3M148 2h8M162 2h5M173 2h2M181 2h3M189 2h8M201 2h2M49 3h3M102 3h11M131 3h3M140 3h2M145 3h11M160 3h7M173 3h2M181 3h3M189 3h7M200 3h8M49 4h3M99 4h8M119 4h7M131 4h5M140 4h2M145 4h6M159 4h5M173 4h3M182 4h2M189 4h2M200 4h9M49 5h3M99 5h4M116 5h10M131 5h7M140 5h3M145 5h2M149 5h2M159 5h3M174 5h2M182 5h2M189 5h2M200 5h3M206 5h3M49 6h3M99 6h2M116 6h6M131 6h2M134 6h5M141 6h2M149 6h2M159 6h3M174 6h3M180 6h4M189 6h2M200 6h2M207 6h3M49 7h3M99 7h2M120 7h3M131 7h3M136 7h4M141 7h2M149 7h3M159 7h5M174 7h10M189 7h5M200 7h2M207 7h3M49 8h3M99 8h2M120 8h3M131 8h3M137 8h7M150 8h2M160 8h7M174 8h10M189 8h5M200 8h2M208 8h2M49 9h3M85 9h12M99 9h2M121 9h2M131 9h3M138 9h6M150 9h2M163 9h6M174 9h3M182 9h2M189 9h4M199 9h3M208 9h2M49 10h3M84 10h13M99 10h2M121 10h2M132 10h2M139 10h5M150 10h10M165 10h5M175 10h2M182 10h2M189 10h2M199 10h2M208 10h2M49 11h3M83 11h3M99 11h2M104 11h9M121 11h2M132 11h3M141 11h3M146 11h14M167 11h4M175 11h2M182 11h2M189 11h2M199 11h2M208 11h2M49 12h3M82 12h3M99 12h14M118 12h12M132 12h3M146 12h7M161 12h4M168 12h3M175 12h2M182 12h3M189 12h2M198 12h3M207 12h3M49 13h3M81 13h4M99 13h7M118 13h12M133 13h3M161 13h10M175 13h2M182 13h3M189 13h7M198 13h3M206 13h3M49 14h3M81 14h3M100 14h2M133 14h3M163 14h6M183 14h2M189 14h7M198 14h2M204 14h5M49 15h3M81 15h2M100 15h2M134 15h2M194 15h14M48 16h4M78 16h2M81 16h2M100 16h2M194 16h11M48 17h4M78 17h2M81 17h2M100 17h2M145 17h7M48 18h3M78 18h8M100 18h3M145 18h9M48 19h3M78 19h8M100 19h3M145 19h11M48 20h3M79 20h5M150 20h8M48 21h3M79 21h4M115 21h6M152 21h7M48 22h3M113 22h8M154 22h5M48 23h3M111 23h10M155 23h6M47 24h4M110 24h7M118 24h3M132 24h4M156 24h5M47 25h4M107 25h9M118 25h3M132 25h6M157 25h5M47 26h3M105 26h9M118 26h3M132 26h7M158 26h6M47 27h3M104 27h9M117 27h4M134 27h7M159 27h5M47 28h3M102 28h8M117 28h4M135 28h6M160 28h5M47 29h3M72 29h14M101 29h7M117 29h3M137 29h5M161 29h5M47 30h3M72 30h15M100 30h7M117 30h3M138 30h5M162 30h5M47 31h3M72 31h15M99 31h6M117 31h3M139 31h4M163 31h5M47 32h3M72 32h3M83 32h4M98 32h6M117 32h3M140 32h3M163 32h5M47 33h3M72 33h3M84 33h3M97 33h6M117 33h3M140 33h4M164 33h5M47 34h3M71 34h4M84 34h3M95 34h7M117 34h3M140 34h5M165 34h4M47 35h4M71 35h4M84 35h3M93 35h7M117 35h3M141 35h4M166 35h4M47 36h4M71 36h4M84 36h3M91 36h8M117 36h3M125 36h4M141 36h4M166 36h4M47 37h4M71 37h3M84 37h3M90 37h8M117 37h3M125 37h6M142 37h4M167 37h4M48 38h3M71 38h3M84 38h3M88 38h8M117 38h3M125 38h6M142 38h5M167 38h4M48 39h4M71 39h3M84 39h10M117 39h3M126 39h5M143 39h4M168 39h4M48 40h6M71 40h3M84 40h9M117 40h3M128 40h4M143 40h4M168 40h4M48 41h22M71 41h3M84 41h6M117 41h3M128 41h4M144 41h3M168 41h4M49 42h25M84 42h5M117 42h3M129 42h3M144 42h3M169 42h3M52 43h22M84 43h3M117 43h3M129 43h3M144 43h3M169 43h4M68 44h6M84 44h3M117 44h3M129 44h3M144 44h3M169 44h4M71 45h3M84 45h3M117 45h3M129 45h3M144 45h3M170 45h3M71 46h3M84 46h3M117 46h3M129 46h3M144 46h3M170 46h3M71 47h3M84 47h3M117 47h3M129 47h3M144 47h3M170 47h3M71 48h3M84 48h3M117 48h3M129 48h3M144 48h3M170 48h3M71 49h3M84 49h3M117 49h3M129 49h3M144 49h3M170 49h3M71 50h3M84 50h3M117 50h3M128 50h4M144 50h3M170 50h3M71 51h3M84 51h3M117 51h3M128 51h4M144 51h3M170 51h3M71 52h3M84 52h3M117 52h3M128 52h4M143 52h4M170 52h3M71 53h4M84 53h3M117 53h3M127 53h4M143 53h4M170 53h3M71 54h4M84 54h3M117 54h3M126 54h5M142 54h4M170 54h3M72 55h3M84 55h3M117 55h3M126 55h5M142 55h4M170 55h3M72 56h3M84 56h3M117 56h3M125 56h5M141 56h5M170 56h3M72 57h3M84 57h3M117 57h3M125 57h4M141 57h4M170 57h3M48 58h27M84 58h3M117 58h3M125 58h4M141 58h4M169 58h4M47 59h28M84 59h9M117 59h3M125 59h3M140 59h4M169 59h4M47 60h28M84 60h11M117 60h3M139 60h5M169 60h4M47 61h3M70 61h5M84 61h13M117 61h3M139 61h5M168 61h4M47 62h3M71 62h4M84 62h3M90 62h8M117 62h3M139 62h4M167 62h5M47 63h3M71 63h4M84 63h3M92 63h8M117 63h3M138 63h4M167 63h4M47 64h3M71 64h3M84 64h3M94 64h7M117 64h3M137 64h5M167 64h4M47 65h3M71 65h3M84 65h3M95 65h9M117 65h3M136 65h5M166 65h4M47 66h3M71 66h4M83 66h4M97 66h9M117 66h3M135 66h6M165 66h5M47 67h3M71 67h4M83 67h4M99 67h8M117 67h3M133 67h7M165 67h4M46 68h4M71 68h4M83 68h3M101 68h8M117 68h4M133 68h6M164 68h5M46 69h4M72 69h3M82 69h4M103 69h8M117 69h4M133 69h5M163 69h5M46 70h3M72 70h4M80 70h6M104 70h9M117 70h4M133 70h4M163 70h4M46 71h3M72 71h14M107 71h8M118 71h3M133 71h3M162 71h5M46 72h3M72 72h13M109 72h8M118 72h3M160 72h6M46 73h3M73 73h9M110 73h11M158 73h7M46 74h3M113 74h8M156 74h8M46 75h3M114 75h7M154 75h9M46 76h3M116 76h5M153 76h8M46 77h3M117 77h4M150 77h9M46 78h3M118 78h3M147 78h10M46 79h3M147 79h8M46 80h3M147 80h6M46 81h3M46 82h3M46 83h4M46 84h4M46 85h4M47 86h3M47 87h3M47 88h4M47 89h4M47 90h4M48 91h3M48 92h3M48 93h3M48 94h3M48 95h3M48 96h3M48 97h3M48 98h3M48 99h3" />
<path stroke="rgba(0,0,0,0.023529411764705882)" d="M97 9h1" />
<path stroke="rgba(0,0,0,0.07450980392156863)" d="M98 9h1" />
<path stroke="rgba(0,0,0,0.01568627450980392)" d="M97 10h1" />
<path stroke="rgba(0,0,0,0.08235294117647059)" d="M98 10h1" />
<path stroke="rgba(223,81,81,0.7764705882352941)" d="M143 16h12M114 17h2M122 17h2M143 17h2M152 17h5M111 18h1M124 18h1M143 18h2M154 18h4M108 19h2M125 19h1M143 19h2M156 19h3M105 20h3M125 20h1M143 20h7M158 20h2M104 21h3M125 21h1M144 21h8M159 21h2M101 22h4M125 22h1M152 22h2M159 22h3M100 23h3M125 23h1M131 23h7M154 23h1M161 23h2M86 24h2M98 24h3M125 24h1M131 24h1M136 24h3M155 24h1M161 24h2M89 25h1M96 25h3M125 25h1M131 25h1M138 25h2M155 25h2M162 25h2M91 26h1M94 26h2M125 26h1M131 26h1M139 26h2M156 26h2M164 26h1M91 27h1M93 27h2M125 27h1M131 27h3M141 27h1M157 27h2M164 27h2M91 28h2M125 28h1M132 28h3M141 28h1M158 28h2M165 28h2M125 29h1M134 29h3M142 29h1M158 29h3M166 29h1M125 30h1M136 30h2M159 30h3M167 30h1M125 31h1M136 31h3M143 31h1M160 31h3M125 32h1M137 32h3M143 32h1M161 32h2M168 32h1M125 33h1M137 33h3M144 33h1M161 33h3M126 34h3M137 34h3M145 34h1M162 34h3M169 34h1M126 35h4M138 35h3M145 35h2M162 35h4M129 36h2M138 36h3M145 36h2M163 36h3M170 36h1M131 37h1M139 37h3M146 37h2M163 37h4M131 38h2M139 38h3M147 38h1M164 38h3M171 38h1M131 39h2M140 39h3M147 39h1M164 39h4M125 40h1M127 40h1M132 40h1M140 40h3M147 40h1M165 40h3M172 40h1M125 41h1M127 41h1M132 41h1M141 41h3M147 41h1M166 41h2M172 41h1M125 42h1M127 42h2M132 42h1M141 42h3M147 42h1M166 42h3M172 42h1M125 43h1M127 43h2M132 43h1M141 43h3M147 43h1M166 43h3M173 43h1M66 44h1M125 44h1M127 44h2M132 44h1M142 44h2M147 44h1M167 44h2M173 44h1M66 45h1M125 45h1M127 45h2M132 45h1M142 45h2M147 45h1M167 45h3M173 45h1M66 46h1M125 46h1M127 46h2M132 46h1M142 46h2M147 46h1M167 46h3M173 46h1M66 47h1M125 47h1M127 47h2M132 47h1M142 47h2M147 47h1M168 47h2M173 47h1M66 48h1M125 48h1M127 48h2M132 48h1M142 48h2M147 48h1M168 48h2M173 48h1M66 49h1M125 49h1M127 49h2M132 49h1M142 49h2M147 49h1M168 49h2M173 49h1M66 50h1M125 50h1M127 50h1M132 50h1M142 50h2M147 50h1M168 50h2M173 50h1M66 51h1M127 51h1M132 51h1M141 51h3M147 51h1M168 51h2M173 51h1M66 52h1M127 52h1M132 52h1M141 52h2M147 52h1M168 52h2M173 52h1M131 53h2M140 53h3M147 53h1M168 53h2M173 53h1M131 54h1M140 54h2M146 54h2M168 54h2M173 54h1M131 55h1M139 55h3M146 55h2M168 55h2M173 55h1M130 56h2M139 56h2M146 56h2M168 56h2M173 56h1M129 57h2M139 57h2M145 57h3M168 57h2M173 57h1M129 58h2M138 58h3M145 58h3M168 58h1M173 58h1M128 59h2M138 59h2M144 59h4M168 59h1M173 59h1M124 60h1M126 60h3M137 60h2M144 60h3M168 60h1M173 60h1M124 61h2M136 61h3M144 61h3M172 61h2M124 62h2M136 62h3M143 62h3M172 62h2M124 63h2M135 63h3M142 63h3M171 63h3M124 64h2M134 64h3M142 64h3M166 64h1M171 64h3M124 65h2M133 65h3M141 65h3M165 65h1M170 65h4M124 66h2M131 66h4M141 66h3M170 66h3M124 67h2M131 67h2M140 67h3M164 67h1M169 67h4M91 68h2M124 68h2M131 68h2M139 68h3M163 68h1M169 68h3M91 69h4M124 69h1M131 69h2M138 69h3M161 69h2M168 69h4M91 70h1M94 70h2M124 70h1M131 70h2M137 70h4M160 70h3M167 70h4M91 71h1M96 71h2M131 71h2M136 71h4M158 71h4M167 71h3M66 72h1M91 72h1M98 72h2M132 72h6M156 72h4M166 72h3M91 73h1M100 73h1M154 73h4M165 73h3M91 74h1M101 74h1M125 74h1M151 74h5M164 74h3M67 75h1M90 75h2M103 75h1M125 75h1M146 75h8M163 75h3M68 76h1M90 76h2M125 76h1M145 76h8M161 76h3M69 77h1M89 77h2M106 77h1M125 77h1M145 77h5M159 77h4M71 78h7M85 78h5M108 78h1M125 78h1M145 78h2M157 78h4M74 79h15M110 79h2M125 79h1M145 79h2M155 79h4M112 80h1M125 80h1M145 80h2M153 80h2M114 81h1M124 81h2M146 81h5M115 82h1M123 82h2M116 83h2M122 83h2M117 84h6" />
<path stroke="rgba(228,88,88,0.9254901960784314)" d="M116 17h6M112 18h12M110 19h15M108 20h17M107 21h8M121 21h4M105 22h8M121 22h4M103 23h8M121 23h4M70 24h16M101 24h9M121 24h4M69 25h20M99 25h8M121 25h4M68 26h22M96 26h9M121 26h4M68 27h23M95 27h9M121 27h4M67 28h24M93 28h9M121 28h4M67 29h5M86 29h15M120 29h5M67 30h5M87 30h13M120 30h5M67 31h5M87 31h12M120 31h5M67 32h5M87 32h11M120 32h5M67 33h5M87 33h10M120 33h5M67 34h4M87 34h8M120 34h4M67 35h4M87 35h6M120 35h4M67 36h4M87 36h4M120 36h4M67 37h4M87 37h3M120 37h4M67 38h4M87 38h1M120 38h4M67 39h4M120 39h5M67 40h4M120 40h5M70 41h1M120 41h5M120 42h5M120 43h5M67 44h1M120 44h5M67 45h4M120 45h5M67 46h4M120 46h5M67 47h4M120 47h5M67 48h4M120 48h5M67 49h4M120 49h5M67 50h4M120 50h5M67 51h4M120 51h5M67 52h4M120 52h5M66 53h5M120 53h4M66 54h5M120 54h4M66 55h6M120 55h4M66 56h6M120 56h4M66 57h6M120 57h4M120 58h4M120 59h4M120 60h4M66 61h4M120 61h4M66 62h5M87 62h3M120 62h4M66 63h5M87 63h5M120 63h4M66 64h5M87 64h7M120 64h4M66 65h5M87 65h8M120 65h4M66 66h5M87 66h10M120 66h4M66 67h5M87 67h12M120 67h4M66 68h5M86 68h5M93 68h8M121 68h3M66 69h6M86 69h5M95 69h8M121 69h3M66 70h6M86 70h5M96 70h8M121 70h3M66 71h6M87 71h4M98 71h9M121 71h4M67 72h5M85 72h1M87 72h4M100 72h9M121 72h3M67 73h6M82 73h2M87 73h4M101 73h9M121 73h4M67 74h14M87 74h4M102 74h11M121 74h4M68 75h14M86 75h4M104 75h10M121 75h4M69 76h21M105 76h11M121 76h4M70 77h19M107 77h10M121 77h4M78 78h7M109 78h9M121 78h4M112 79h13M113 80h12M115 81h9M116 82h7M118 83h4" />
<path stroke="rgba(227,85,85,0.07058823529411765)" d="M67 24h1" />
<path stroke="rgba(223,80,80,0.6470588235294118)" d="M68 24h1" />
<path stroke="rgba(224,80,80,0.6352941176470588)" d="M69 24h1" />
<path stroke="rgba(223,81,81,0.6901960784313725)" d="M88 24h1" />
<path stroke="rgba(223,80,80,0.34901960784313724)" d="M89 24h1" />
<path stroke="rgba(224,77,77,0.12941176470588237)" d="M90 24h1" />
<path stroke="rgba(222,79,79,0.23921568627450981)" d="M67 25h1" />
<path stroke="rgba(236,97,97,0.8313725490196079)" d="M68 25h1" />
<path stroke="rgba(223,82,82,0.6980392156862745)" d="M90 25h1" />
<path stroke="rgba(222,81,81,0.3333333333333333)" d="M91 25h1" />
<path stroke="rgba(234,96,96,0.8470588235294118)" d="M67 26h1" />
<path stroke="rgba(223,81,81,0.7529411764705882)" d="M90 26h1" />
<path stroke="rgba(233,93,93,0.8666666666666667)" d="M67 27h1" />
<path stroke="rgba(224,83,83,0.984313725490196)" d="M124 34h1M124 35h1M124 36h1M124 37h1M124 38h1M124 53h1M86 71h1M86 72h1M84 73h3M81 74h6M82 75h4" />
<path stroke="rgba(223,81,81,0.9490196078431372)" d="M125 34h1M125 35h1M125 39h1M126 40h1M126 41h1M126 42h1M126 43h1M126 44h1M126 45h1M126 46h1M126 47h1M126 48h1M126 49h1M126 50h1M125 51h2M125 52h2M125 53h2M124 54h2M124 55h2M124 56h1M124 57h1M124 58h1M124 59h1M125 60h1" />
<path stroke="rgba(255,124,124,0.6588235294117647)" d="M124 72h1" />
</svg>