<svg xmlns="http://www.w3.org/2000/svg" viewBox="0 -0.5 75 75" shape-rendering="crispEdges">
<metadata>Made with Pixels to Svg https://codepen.io/shshaw/pen/XbxvNj</metadata>
<path stroke="#000000" d="M36 0h3M36 1h3M36 2h3M36 3h3M35 4h4M35 5h4M35 6h3M35 7h3M35 8h3M35 9h4M35 10h4M35 11h4M36 12h3M36 13h3M36 14h3M36 15h3M36 16h3M36 17h3M36 18h3M36 19h3M36 20h3M34 21h6M34 22h6M0 23h10M27 23h15M47 23h15M69 23h6M0 24h75M0 25h75M7 26h23M32 26h18M59 26h13M34 27h8M35 28h5M36 29h3M36 30h3M36 31h3M36 32h3M36 33h3M36 34h3M36 35h3M27 36h14M27 37h26M27 38h26M39 39h14M31 41h16M15 42h6M31 42h16M15 43h9M31 43h16M17 44h7M15 45h8M36 45h9M14 46h4M19 46h3M36 46h9M12 47h5M18 47h4M36 47h9M12 48h3M18 48h3M11 49h3M18 49h2M10 50h3M10 51h3M10 52h2M10 53h2M10 54h2M10 55h3M10 56h4M11 57h3M12 58h2M63 58h2M14 59h8M63 59h2M13 60h26M49 60h3M55 60h2M63 60h2M13 61h3M20 61h19M48 61h5M55 61h3M62 61h3M13 62h2M21 62h2M24 62h2M32 62h3M38 62h2M42 62h2M47 62h6M55 62h4M62 62h3M13 63h2M20 63h3M24 63h2M32 63h2M38 63h2M41 63h3M47 63h3M51 63h2M55 63h5M62 63h2M13 64h2M20 64h3M24 64h2M32 64h2M37 64h3M41 64h3M47 64h2M50 64h3M55 64h6M62 64h2M12 65h5M19 65h3M23 65h6M31 65h3M37 65h2M41 65h3M47 65h5M55 65h2M58 65h3M62 65h2M12 66h10M23 66h6M31 66h2M37 66h2M41 66h3M47 66h5M55 66h2M59 66h5M12 67h9M23 67h2M31 67h2M37 67h2M41 67h4M47 67h5M55 67h2M59 67h5M12 68h2M15 68h3M23 68h2M31 68h2M36 68h3M41 68h4M47 68h5M55 68h2M60 68h3M11 69h3M16 69h3M23 69h5M30 69h3M36 69h3M41 69h4M47 69h2M50 69h3M55 69h2M11 70h2M17 70h3M23 70h6M30 70h2M36 70h13M51 70h3M55 70h2M11 71h2M17 71h3M27 71h2M37 71h6M44 71h4M52 71h2M45 72h2" />
<path stroke="rgba(77,38,137,0.8666666666666667)" d="M31 26h1M31 27h1M42 27h1M31 28h1M42 28h1M31 29h1M42 29h1M32 30h1M33 31h1M33 32h1M26 33h6M48 34h4M24 35h1M24 36h1M54 36h1M24 37h1M54 37h1M24 38h1M54 38h1M24 39h1M54 39h1M24 40h1M54 40h1M24 41h2M53 41h1M29 42h1M50 42h3M31 47h1M31 48h3M31 49h3M31 50h3M47 50h1M32 51h2M46 51h1M40 52h5" />
<path stroke="rgba(77,38,137,0.9294117647058824)" d="M32 27h2M32 28h3M40 28h2M32 29h4M39 29h3M33 30h3M39 30h3M34 31h2M39 31h3M34 32h2M39 32h3M32 33h4M39 33h3M25 34h11M39 34h9M25 35h11M39 35h15M25 36h2M41 36h13M25 37h2M53 37h1M25 38h2M53 38h1M25 39h14M53 39h1M25 40h29M26 41h5M47 41h6M30 42h1M47 42h3M30 43h1M47 43h3M30 44h20M30 45h6M45 45h5M30 46h6M45 46h4M32 47h4M45 47h3M34 48h14M34 49h14M34 50h13M34 51h12" />
<path stroke="rgba(76,37,137,0.4588235294117647)" d="M42 33h1" />
</svg>