<svg xmlns="http://www.w3.org/2000/svg" viewBox="0 -0.5 125 75" shape-rendering="crispEdges">
<metadata>Made with Pixels to Svg https://codepen.io/shshaw/pen/XbxvNj</metadata>
<path stroke="#000000" d="M76 20h3M76 21h4M57 22h3M75 22h5M44 23h3M56 23h5M75 23h5M43 24h4M56 24h5M75 24h6M42 25h5M55 25h7M74 25h7M42 26h5M55 26h7M74 26h8M41 27h6M55 27h7M73 27h9M41 28h6M54 28h4M59 28h4M73 28h4M78 28h4M41 29h6M54 29h4M59 29h4M73 29h4M79 29h4M41 30h6M54 30h4M60 30h3M73 30h3M79 30h4M40 31h7M53 31h4M60 31h4M72 31h4M79 31h4M40 32h8M53 32h4M60 32h4M72 32h4M80 32h4M40 33h8M53 33h4M61 33h3M72 33h3M80 33h4M40 34h3M44 34h4M53 34h3M61 34h4M72 34h3M81 34h4M86 34h22M19 35h12M39 35h4M45 35h3M53 35h3M61 35h4M72 35h3M81 35h4M86 35h27M0 36h43M45 36h4M52 36h4M62 36h4M71 36h4M81 36h44M0 37h42M45 37h4M52 37h4M62 37h4M71 37h4M82 37h7M106 37h19M0 38h22M29 38h13M46 38h3M52 38h3M63 38h4M71 38h3M82 38h6M110 38h15M46 39h4M51 39h4M63 39h4M71 39h3M83 39h5M46 40h4M51 40h4M63 40h5M71 40h3M83 40h5M46 41h4M51 41h4M64 41h5M71 41h3M84 41h3M47 42h7M64 42h5M70 42h4M47 43h7M65 43h9M48 44h6M66 44h7M48 45h6M66 45h7M49 46h4M67 46h6M49 47h4M67 47h6M49 48h4M68 48h5M69 49h4M69 50h3" />
</svg>