<svg xmlns="http://www.w3.org/2000/svg" viewBox="0 -0.5 75 75" shape-rendering="crispEdges">
<metadata>Made with Pixels to Svg https://codepen.io/shshaw/pen/XbxvNj</metadata>
<path stroke="#000000" d="M36 34h3M35 35h6M50 35h13M0 36h23M34 36h41M0 37h75M0 38h52M61 38h14M20 39h22M34 40h7M35 41h6M36 42h3M36 43h3M36 44h3M36 45h3M36 46h3M36 47h3M36 48h3M36 49h3M36 50h3M36 51h3M36 52h3M36 53h3M36 54h3M36 55h3M36 56h3M35 57h4M35 58h4M35 59h3M35 60h3M35 61h3M35 62h3M35 63h3M35 64h3M35 65h3M35 66h3M35 67h4M35 68h4M35 69h4M36 70h3M36 71h3M36 72h3M36 73h3M36 74h3" />
</svg>