<svg xmlns="http://www.w3.org/2000/svg" viewBox="0 -0.5 75 100" shape-rendering="crispEdges">
<metadata>Made with Pixels to Svg https://codepen.io/shshaw/pen/XbxvNj</metadata>
<path stroke="#000000" d="M36 0h3M36 1h3M36 2h3M36 3h3M36 4h3M35 5h4M35 6h4M35 7h4M35 8h3M35 9h3M35 10h3M35 11h3M35 12h3M35 13h3M35 14h3M35 15h4M35 16h4M36 17h3M36 18h3M36 19h3M36 20h3M36 21h3M36 22h3M36 23h3M36 24h3M36 25h3M36 26h3M36 27h3M36 28h3M36 29h3M36 30h3M36 31h3M36 32h3M36 33h3M36 34h11M33 35h16M31 36h19M29 37h10M44 37h7M28 38h7M46 38h6M27 39h7M47 39h6M25 40h7M48 40h6M25 41h5M49 41h5M24 42h5M50 42h5M23 43h5M51 43h4M23 44h4M51 44h5M23 45h4M52 45h4M22 46h4M52 46h4M22 47h4M32 47h7M46 47h3M53 47h4M22 48h3M31 48h9M46 48h3M53 48h4M22 49h3M29 49h11M46 49h3M54 49h3M21 50h4M28 50h7M36 50h5M46 50h3M54 50h3M21 51h4M27 51h6M37 51h5M45 51h4M54 51h3M21 52h4M27 52h5M38 52h5M45 52h4M54 52h3M21 53h3M27 53h3M38 53h10M54 53h3M21 54h3M26 54h4M39 54h9M54 54h3M21 55h4M26 55h4M40 55h7M53 55h4M21 56h4M26 56h3M53 56h4M22 57h3M53 57h4M22 58h4M53 58h3M22 59h4M53 59h3M22 60h4M52 60h4M23 61h4M52 61h4M23 62h5M52 62h4M24 63h4M51 63h4M24 64h5M50 64h5M25 65h5M50 65h4M26 66h6M49 66h5M27 67h8M47 67h6M28 68h12M46 68h6M30 69h21M33 70h17M37 71h11M37 72h4M37 73h4M37 74h4M37 75h4M37 76h3M37 77h3M37 78h3M37 79h3M37 80h3M37 81h3M37 82h3M37 83h3M37 84h3M37 85h3M37 86h3M37 87h3M37 88h3M37 89h3M36 90h4M36 91h4M36 92h4M36 93h3M36 94h3M36 95h3M36 96h3M36 97h3M36 98h3M36 99h3" />
</svg>