<svg xmlns="http://www.w3.org/2000/svg" viewBox="0 -0.5 225 100" shape-rendering="crispEdges">
<metadata>Made with Pixels to Svg https://codepen.io/shshaw/pen/XbxvNj</metadata>
<path stroke="#000000" d="M49 0h3M49 1h3M49 2h3M49 3h3M49 4h3M49 5h3M49 6h3M49 7h3M49 8h3M49 9h3M49 10h3M49 11h3M49 12h3M49 13h3M49 14h3M49 15h3M48 16h4M48 17h4M145 17h7M48 18h3M145 18h9M48 19h3M145 19h11M48 20h3M150 20h8M48 21h3M115 21h6M152 21h7M48 22h3M113 22h8M154 22h5M48 23h3M111 23h10M155 23h6M47 24h4M110 24h7M118 24h3M132 24h4M156 24h5M47 25h4M107 25h9M118 25h3M132 25h6M157 25h5M47 26h3M105 26h9M118 26h3M132 26h7M158 26h6M47 27h3M104 27h9M117 27h4M134 27h7M159 27h5M47 28h3M102 28h8M117 28h4M135 28h6M160 28h5M47 29h3M72 29h14M101 29h7M117 29h3M137 29h5M161 29h5M47 30h3M72 30h15M100 30h7M117 30h3M138 30h5M162 30h5M47 31h3M72 31h15M99 31h6M117 31h3M139 31h4M163 31h5M47 32h3M72 32h3M83 32h4M98 32h6M117 32h3M140 32h3M163 32h5M47 33h3M72 33h3M84 33h3M97 33h6M117 33h3M140 33h4M164 33h5M47 34h3M71 34h4M84 34h3M95 34h7M117 34h3M140 34h5M165 34h4M47 35h4M71 35h4M84 35h3M93 35h7M117 35h3M141 35h4M166 35h4M47 36h4M71 36h4M84 36h3M91 36h8M117 36h3M125 36h4M141 36h4M166 36h4M47 37h4M71 37h3M84 37h3M90 37h8M117 37h3M125 37h6M142 37h4M167 37h4M48 38h3M71 38h3M84 38h3M88 38h8M117 38h3M125 38h6M142 38h5M167 38h4M48 39h4M71 39h3M84 39h10M117 39h3M126 39h5M143 39h4M168 39h4M48 40h6M71 40h3M84 40h9M117 40h3M128 40h4M143 40h4M168 40h4M48 41h22M71 41h3M84 41h6M117 41h3M128 41h4M144 41h3M168 41h4M49 42h25M84 42h5M117 42h3M129 42h3M144 42h3M169 42h3M52 43h22M84 43h3M117 43h3M129 43h3M144 43h3M169 43h4M68 44h6M84 44h3M117 44h3M129 44h3M144 44h3M169 44h4M71 45h3M84 45h3M117 45h3M129 45h3M144 45h3M170 45h3M71 46h3M84 46h3M117 46h3M129 46h3M144 46h3M170 46h3M71 47h3M84 47h3M117 47h3M129 47h3M144 47h3M170 47h3M71 48h3M84 48h3M117 48h3M129 48h3M144 48h3M170 48h3M71 49h3M84 49h3M117 49h3M129 49h3M144 49h3M170 49h3M71 50h3M84 50h3M117 50h3M128 50h4M144 50h3M170 50h3M71 51h3M84 51h3M117 51h3M128 51h4M144 51h3M170 51h3M71 52h3M84 52h3M117 52h3M128 52h4M143 52h4M170 52h3M71 53h4M84 53h3M117 53h3M127 53h4M143 53h4M170 53h3M71 54h4M84 54h3M117 54h3M126 54h5M142 54h4M170 54h3M72 55h3M84 55h3M117 55h3M126 55h5M142 55h4M170 55h3M72 56h3M84 56h3M117 56h3M125 56h5M141 56h5M170 56h3M72 57h3M84 57h3M117 57h3M125 57h4M141 57h4M170 57h3M48 58h27M84 58h3M117 58h3M125 58h4M141 58h4M169 58h4M47 59h28M84 59h9M117 59h3M125 59h3M140 59h4M169 59h4M47 60h28M84 60h11M117 60h3M139 60h5M169 60h4M47 61h3M70 61h5M84 61h13M117 61h3M139 61h5M168 61h4M47 62h3M71 62h4M84 62h3M90 62h8M117 62h3M139 62h4M167 62h5M47 63h3M71 63h4M84 63h3M92 63h8M117 63h3M138 63h4M167 63h4M47 64h3M71 64h3M84 64h3M94 64h7M117 64h3M137 64h5M167 64h4M47 65h3M71 65h3M84 65h3M95 65h9M117 65h3M136 65h5M166 65h4M47 66h3M71 66h4M83 66h4M97 66h9M117 66h3M135 66h6M165 66h5M47 67h3M71 67h4M83 67h4M99 67h8M117 67h3M133 67h7M165 67h4M46 68h4M71 68h4M83 68h3M101 68h8M117 68h4M133 68h6M164 68h5M46 69h4M72 69h3M82 69h4M103 69h8M117 69h4M133 69h5M163 69h5M46 70h3M72 70h4M80 70h6M104 70h9M117 70h4M133 70h4M163 70h4M46 71h3M72 71h14M107 71h8M118 71h3M133 71h3M162 71h5M46 72h3M72 72h13M109 72h8M118 72h3M160 72h6M46 73h3M73 73h9M110 73h11M158 73h7M46 74h3M113 74h8M156 74h8M46 75h3M114 75h7M154 75h9M46 76h3M116 76h5M153 76h8M46 77h3M117 77h4M150 77h9M46 78h3M118 78h3M147 78h10M46 79h3M147 79h8M46 80h3M147 80h6M46 81h3M46 82h3M46 83h4M46 84h4M46 85h4M47 86h3M47 87h3M47 88h4M47 89h4M47 90h4M48 91h3M48 92h3M48 93h3M48 94h3M48 95h3M48 96h3M48 97h3M48 98h3M48 99h3" />
</svg>