<svg xmlns="http://www.w3.org/2000/svg" viewBox="0 -0.5 125 75" shape-rendering="crispEdges">
<metadata>Made with Pixels to Svg https://codepen.io/shshaw/pen/XbxvNj</metadata>
<path stroke="#ffffff" d="M0 0h125M0 1h125M0 2h125M0 3h112M114 3h11M0 4h112M114 4h2M120 4h5M0 5h112M114 5h1M120 5h5M0 6h77M87 6h25M114 6h1M118 6h7M0 7h66M68 7h6M87 7h13M103 7h9M114 7h1M117 7h8M0 8h65M68 8h4M78 8h10M91 8h3M96 8h4M103 8h3M109 8h3M114 8h1M119 8h6M0 9h65M68 9h2M76 9h10M92 9h2M96 9h4M104 9h2M110 9h2M114 9h2M120 9h5M0 10h64M68 10h1M74 10h12M92 10h2M96 10h4M104 10h2M110 10h2M114 10h4M121 10h4M0 11h64M72 11h14M88 11h2M93 11h1M96 11h4M104 11h2M111 11h1M114 11h5M122 11h3M0 12h63M70 12h16M88 12h3M93 12h1M96 12h4M104 12h2M108 12h1M111 12h1M114 12h5M122 12h3M0 13h63M69 13h17M88 13h3M93 13h1M96 13h4M105 13h1M108 13h1M114 13h6M122 13h3M0 14h63M71 14h15M88 14h3M96 14h4M102 14h1M105 14h1M108 14h2M114 14h1M122 14h3M0 15h63M72 15h14M89 15h2M95 15h5M102 15h1M105 15h1M109 15h1M114 15h1M122 15h3M0 16h64M66 16h3M72 16h12M85 16h1M95 16h5M105 16h2M109 16h2M114 16h11M0 17h75M76 17h11M92 17h1M95 17h5M106 17h1M109 17h2M114 17h11M0 18h71M81 18h6M91 18h2M95 18h5M102 18h2M106 18h1M109 18h16M0 19h57M63 19h7M82 19h5M89 19h4M95 19h5M102 19h2M106 19h1M109 19h16M0 20h52M64 20h5M83 20h4M89 20h4M99 20h1M102 20h2M109 20h16M0 21h52M63 21h6M83 21h4M89 21h4M99 21h1M102 21h2M107 21h18M0 22h41M48 22h3M63 22h6M84 22h3M89 22h4M96 22h29M0 23h40M49 23h2M64 23h4M84 23h3M89 23h36M0 24h39M49 24h1M64 24h4M86 24h1M89 24h36M0 25h38M49 25h1M65 25h2M85 25h1M87 25h38M0 26h37M49 26h1M66 26h1M85 26h40M0 27h36M66 27h1M86 27h39M0 28h36M86 28h39M0 29h35M87 29h38M0 30h34M87 30h38M0 31h33M88 31h37M0 32h33M88 32h37M0 33h33M91 33h34M0 34h33M108 34h17M0 35h19M31 35h2M113 35h12M91 37h15M22 38h7M91 38h19M0 39h33M91 39h34M0 40h34M91 40h34M0 41h35M91 41h34M0 42h36M90 42h35M0 43h38M42 43h1M81 43h1M90 43h35M0 44h43M60 44h1M81 44h2M89 44h36M0 45h44M59 45h2M80 45h45M0 46h44M59 46h3M80 46h45M0 47h44M58 47h5M80 47h45M0 48h45M57 48h6M79 48h46M0 49h45M57 49h7M79 49h46M0 50h46M56 50h9M78 50h47M0 51h47M55 51h11M77 51h48M0 52h48M54 52h13M77 52h48M0 53h68M76 53h49M0 54h69M75 54h50M0 55h125M0 56h125M0 57h125M0 58h125M0 59h125M0 60h125M0 61h125M0 62h125M0 63h125M0 64h125M0 65h125M0 66h125M0 67h125M0 68h125M0 69h125M0 70h125M0 71h125M0 72h125M0 73h125M0 74h125" />
<path stroke="#000000" d="M112 3h2M112 4h2M116 4h4M112 5h2M115 5h5M77 6h10M112 6h2M115 6h3M66 7h2M74 7h13M100 7h3M112 7h2M115 7h2M65 8h3M72 8h6M88 8h3M94 8h2M100 8h3M106 8h3M112 8h2M115 8h4M65 9h3M70 9h6M86 9h6M94 9h2M100 9h4M106 9h4M112 9h2M116 9h4M64 10h4M69 10h5M86 10h6M94 10h2M100 10h4M106 10h4M112 10h2M118 10h3M64 11h8M86 11h2M90 11h3M94 11h2M100 11h4M106 11h5M112 11h2M119 11h3M63 12h7M86 12h2M91 12h2M94 12h2M100 12h4M106 12h2M109 12h2M112 12h2M119 12h3M63 13h6M86 13h2M91 13h2M94 13h2M100 13h5M106 13h2M109 13h5M120 13h2M63 14h8M86 14h2M91 14h5M100 14h2M103 14h2M106 14h2M110 14h4M115 14h7M63 15h9M86 15h3M91 15h4M100 15h2M103 15h2M106 15h3M110 15h4M115 15h7M64 16h2M69 16h3M86 16h9M100 16h5M107 16h2M111 16h3M87 17h5M93 17h2M100 17h6M107 17h2M111 17h3M87 18h4M93 18h2M100 18h2M104 18h2M107 18h2M87 19h2M93 19h2M100 19h2M104 19h2M107 19h2M76 20h3M87 20h2M93 20h6M100 20h2M104 20h5M76 21h4M87 21h2M93 21h6M100 21h2M104 21h3M57 22h3M75 22h5M87 22h2M93 22h3M44 23h3M56 23h5M75 23h5M87 23h2M43 24h4M56 24h5M75 24h6M87 24h2M42 25h5M55 25h7M74 25h7M42 26h5M55 26h7M74 26h8M41 27h6M55 27h7M73 27h9M41 28h6M54 28h4M59 28h4M73 28h4M78 28h4M41 29h6M54 29h4M59 29h4M73 29h4M79 29h4M41 30h6M54 30h4M60 30h3M73 30h3M79 30h4M40 31h7M53 31h4M60 31h4M72 31h4M79 31h4M40 32h8M53 32h4M60 32h4M72 32h4M80 32h4M40 33h8M53 33h4M61 33h3M72 33h3M80 33h4M40 34h3M44 34h4M53 34h3M61 34h4M72 34h3M81 34h4M86 34h22M19 35h12M39 35h4M45 35h3M53 35h3M61 35h4M72 35h3M81 35h4M86 35h27M0 36h43M45 36h4M52 36h4M62 36h4M71 36h4M81 36h44M0 37h42M45 37h4M52 37h4M62 37h4M71 37h4M82 37h7M106 37h19M0 38h22M29 38h13M46 38h3M52 38h3M63 38h4M71 38h3M82 38h6M110 38h15M46 39h4M51 39h4M63 39h4M71 39h3M83 39h5M46 40h4M51 40h4M63 40h5M71 40h3M83 40h5M46 41h4M51 41h4M64 41h5M71 41h3M84 41h3M47 42h7M64 42h5M70 42h4M47 43h7M65 43h9M48 44h6M66 44h7M48 45h6M66 45h7M49 46h4M67 46h6M49 47h4M67 47h6M49 48h4M68 48h5M69 49h4M69 50h3" />
<path stroke="#fdfeff" d="M84 16h1" />
<path stroke="#fcfdff" d="M75 17h1M86 25h1" />
<path stroke="#e8f1ff" d="M71 18h1" />
<path stroke="#abcbfe" d="M72 18h2M71 19h1M70 20h1M70 21h1M70 22h1M40 23h1M40 24h1M69 24h1M39 25h1M69 25h1M39 26h1M69 26h1M38 27h1M68 28h1M68 29h1M68 30h1M35 31h1M68 31h1M34 32h2M68 32h1M34 33h2M34 34h2M34 35h2M78 37h1M59 38h1M78 38h1M34 39h1M59 39h1M78 39h2M34 40h1M59 40h1M78 40h2M58 41h3M79 41h2M58 42h3M81 42h1M58 43h1M60 43h1M58 44h1" />
<path stroke="#91c3ea" d="M74 18h2M75 19h4M74 20h2M79 20h1M71 21h5M56 22h1M60 22h2M71 22h4M41 23h3M54 23h2M61 23h2M70 23h5M80 23h1M41 24h2M47 24h1M53 24h3M61 24h2M70 24h5M81 24h1M40 25h2M47 25h2M52 25h3M62 25h2M70 25h4M81 25h1M40 26h2M47 26h2M52 26h3M62 26h2M70 26h4M82 26h1M39 27h2M47 27h2M51 27h4M62 27h2M69 27h4M82 27h1M38 28h3M47 28h2M50 28h4M58 28h1M63 28h2M69 28h4M77 28h1M82 28h2M37 29h4M47 29h7M58 29h1M63 29h2M69 29h4M77 29h2M83 29h1M37 30h4M47 30h7M58 30h2M63 30h3M69 30h4M76 30h3M83 30h2M36 31h4M47 31h6M57 31h3M64 31h2M69 31h3M76 31h3M83 31h2M36 32h4M48 32h5M57 32h3M64 32h2M69 32h3M76 32h4M84 32h2M36 33h4M48 33h5M57 33h4M64 33h8M75 33h5M84 33h2M36 34h4M43 34h1M48 34h5M56 34h5M65 34h7M75 34h6M85 34h1M36 35h3M43 35h2M48 35h5M56 35h5M65 35h7M75 35h6M85 35h1M43 36h2M49 36h3M56 36h6M66 36h5M75 36h6M42 37h1M44 37h1M49 37h3M56 37h6M66 37h5M75 37h3M79 37h3M42 38h1M44 38h2M49 38h3M55 38h4M60 38h3M67 38h4M74 38h4M79 38h3M88 38h1M35 39h8M45 39h1M50 39h1M55 39h4M60 39h3M67 39h4M74 39h4M80 39h3M88 39h1M35 40h7M45 40h1M50 40h1M55 40h4M60 40h3M68 40h3M74 40h3M80 40h3M88 40h1M45 41h1M50 41h1M55 41h3M61 41h3M69 41h2M74 41h3M81 41h3M87 41h2M45 42h2M54 42h4M61 42h3M69 42h1M74 42h3M82 42h7M46 43h1M54 43h4M62 43h3M74 43h3M82 43h6M46 44h2M54 44h4M62 44h4M73 44h4M47 45h1M54 45h4M63 45h3M73 45h3M47 46h2M53 46h5M64 46h3M73 46h3M47 47h2M53 47h4M65 47h2M73 47h3M47 48h2M53 48h4M65 48h3M73 48h2M47 49h9M66 49h3M73 49h2M47 50h8M66 50h3M72 50h3M48 51h5M67 51h8M68 52h6" />
<path stroke="#add4eb" d="M76 18h3M79 19h1M57 20h3M80 20h2M54 21h8M80 21h3M42 22h5M52 22h4M62 22h1M80 22h3M47 23h1M52 23h2M81 23h3M48 24h1M51 24h2M63 24h1M82 24h2M51 25h1M82 25h3M50 26h2M64 26h1M83 26h2M50 27h1M64 27h2M83 27h3M65 28h1M84 28h2M65 29h2M84 29h2M66 30h1M85 30h2M66 31h2M85 31h2M66 32h2M86 32h1M86 33h3M43 37h1M89 37h1M43 38h1M89 38h1M43 39h2M89 39h1M42 40h3M77 40h1M89 40h1M35 41h8M44 41h1M77 41h1M89 41h1M36 42h7M44 42h1M89 42h1M44 43h2M88 43h2M44 44h2M83 44h6M44 45h3M62 45h1M76 45h1M44 46h3M63 46h1M76 46h1M44 47h3M63 47h2M76 47h1M45 48h2M64 48h1M75 48h2M46 49h1M56 49h1M65 49h1M75 49h2M46 50h1M55 50h1M75 50h1M47 51h1M53 51h2M75 51h1M49 52h5M67 52h1M74 52h1M68 53h6" />
<path stroke="#d0eaeb" d="M79 18h2M57 19h6M80 19h2M60 20h3M82 20h1M62 21h1M47 22h1M83 22h1M48 23h1M63 23h1M84 24h1M89 33h2M90 37h1M90 38h1M90 39h1M90 40h1M90 41h1M38 43h4M63 48h1M45 49h1M64 49h1M65 50h1M66 51h1" />
<path stroke="#edf4ff" d="M70 19h1" />
<path stroke="#7bb5ea" d="M72 19h3M72 20h2" />
<path stroke="#d0e2ff" d="M52 20h5M52 21h2M69 21h1M41 22h1M51 22h1M69 22h1M51 23h1M68 23h2M39 24h1M50 24h1M68 24h1M38 25h1M50 25h1M64 25h1M67 25h2M37 26h2M65 26h1M67 26h2M36 27h2M49 27h1M67 27h2M36 28h2M49 28h1M66 28h2M35 29h2M67 29h1M86 29h1M34 30h3M67 30h1M33 31h2M87 31h1M33 32h1M87 32h1M33 33h1M33 34h1M33 35h1M33 39h1M43 41h1M78 41h1M43 42h1M77 42h4M43 43h1M59 43h1M61 43h1M77 43h4M43 44h1M59 44h1M61 44h1M77 44h4M58 45h1M61 45h1M77 45h3M58 46h1M62 46h1M77 46h3M57 47h1M77 47h3M77 48h2M77 49h2M76 50h2M76 51h1M48 52h1M75 52h2M74 53h2M69 54h6" />
<path stroke="#fefeff" d="M63 20h1" />
<path stroke="#f4f8ff" d="M69 20h1" />
<path stroke="#8eb9fe" d="M71 20h1" />
<path stroke="#f8fbff" d="M85 24h1" />
</svg>