<svg xmlns="http://www.w3.org/2000/svg" viewBox="0 -0.5 125 75" shape-rendering="crispEdges">
<metadata>Made with Pixels to Svg https://codepen.io/shshaw/pen/XbxvNj</metadata>
<path stroke="#000000" d="M112 3h2M112 4h2M116 4h4M112 5h2M115 5h5M77 6h10M112 6h2M115 6h3M66 7h2M74 7h13M100 7h3M112 7h2M115 7h2M65 8h3M72 8h6M88 8h3M94 8h2M100 8h3M106 8h3M112 8h2M115 8h4M65 9h3M70 9h6M86 9h6M94 9h2M100 9h4M106 9h4M112 9h2M116 9h4M64 10h4M69 10h5M86 10h6M94 10h2M100 10h4M106 10h4M112 10h2M118 10h3M64 11h8M86 11h2M90 11h3M94 11h2M100 11h4M106 11h5M112 11h2M119 11h3M63 12h7M86 12h2M91 12h2M94 12h2M100 12h4M106 12h2M109 12h2M112 12h2M119 12h3M63 13h6M86 13h2M91 13h2M94 13h2M100 13h5M106 13h2M109 13h5M120 13h2M63 14h8M86 14h2M91 14h5M100 14h2M103 14h2M106 14h2M110 14h4M115 14h7M63 15h9M86 15h3M91 15h4M100 15h2M103 15h2M106 15h3M110 15h4M115 15h7M64 16h2M69 16h3M86 16h9M100 16h5M107 16h2M111 16h3M87 17h5M93 17h2M100 17h6M107 17h2M111 17h3M87 18h4M93 18h2M100 18h2M104 18h2M107 18h2M87 19h2M93 19h2M100 19h2M104 19h2M107 19h2M76 20h3M87 20h2M93 20h6M100 20h2M104 20h5M76 21h4M87 21h2M93 21h6M100 21h2M104 21h3M57 22h3M75 22h5M87 22h2M93 22h3M44 23h3M56 23h5M75 23h5M87 23h2M43 24h4M56 24h5M75 24h6M87 24h2M42 25h5M55 25h7M74 25h7M42 26h5M55 26h7M74 26h8M41 27h6M55 27h7M73 27h9M41 28h6M54 28h4M59 28h4M73 28h4M78 28h4M41 29h6M54 29h4M59 29h4M73 29h4M79 29h4M41 30h6M54 30h4M60 30h3M73 30h3M79 30h4M40 31h7M53 31h4M60 31h4M72 31h4M79 31h4M40 32h8M53 32h4M60 32h4M72 32h4M80 32h4M40 33h8M53 33h4M61 33h3M72 33h3M80 33h4M40 34h3M44 34h4M53 34h3M61 34h4M72 34h3M81 34h4M86 34h22M19 35h12M39 35h4M45 35h3M53 35h3M61 35h4M72 35h3M81 35h4M86 35h27M0 36h43M45 36h4M52 36h4M62 36h4M71 36h4M81 36h44M0 37h42M45 37h4M52 37h4M62 37h4M71 37h4M82 37h7M106 37h19M0 38h22M29 38h13M46 38h3M52 38h3M63 38h4M71 38h3M82 38h6M110 38h15M46 39h4M51 39h4M63 39h4M71 39h3M83 39h5M46 40h4M51 40h4M63 40h5M71 40h3M83 40h5M46 41h4M51 41h4M64 41h5M71 41h3M84 41h3M47 42h7M64 42h5M70 42h4M47 43h7M65 43h9M48 44h6M66 44h7M48 45h6M66 45h7M49 46h4M67 46h6M49 47h4M67 47h6M49 48h4M68 48h5M69 49h4M69 50h3" />
<path stroke="rgba(65,170,174,0.24705882352941178)" d="M74 18h7M57 19h6M72 19h10M57 20h6M72 20h4M79 20h4M54 21h9M71 21h5M80 21h3M42 22h6M52 22h5M60 22h3M71 22h4M80 22h4M41 23h3M47 23h2M52 23h4M61 23h3M70 23h5M80 23h4M41 24h2M47 24h2M51 24h5M61 24h3M70 24h5M81 24h4M40 25h2M47 25h2M51 25h4M62 25h2M70 25h4M81 25h4M40 26h2M47 26h2M50 26h5M62 26h3M70 26h4M82 26h3M39 27h2M47 27h2M50 27h5M62 27h4M69 27h4M82 27h4M38 28h3M47 28h2M50 28h4M58 28h1M63 28h3M69 28h4M77 28h1M82 28h4M37 29h4M47 29h7M58 29h1M63 29h4M69 29h4M77 29h2M83 29h3M37 30h4M47 30h7M58 30h2M63 30h4M69 30h4M76 30h3M83 30h4M36 31h4M47 31h6M57 31h3M64 31h4M69 31h3M76 31h3M83 31h4M36 32h4M48 32h5M57 32h3M64 32h4M69 32h3M76 32h4M84 32h3M36 33h4M48 33h5M57 33h4M64 33h8M75 33h5M84 33h7M36 34h4M43 34h1M48 34h5M56 34h5M65 34h7M75 34h6M85 34h1M36 35h3M43 35h2M48 35h5M56 35h5M65 35h7M75 35h6M85 35h1M43 36h2M49 36h3M56 36h6M66 36h5M75 36h6M42 37h3M49 37h3M56 37h6M66 37h5M75 37h3M79 37h3M89 37h2M42 38h4M49 38h3M55 38h4M60 38h3M67 38h4M74 38h4M79 38h3M88 38h3M35 39h11M50 39h1M55 39h4M60 39h3M67 39h4M74 39h4M80 39h3M88 39h3M35 40h11M50 40h1M55 40h4M60 40h3M68 40h3M74 40h4M80 40h3M88 40h3M35 41h8M44 41h2M50 41h1M55 41h3M61 41h3M69 41h2M74 41h4M81 41h3M87 41h4M36 42h7M44 42h3M54 42h4M61 42h3M69 42h1M74 42h3M82 42h8M38 43h4M44 43h3M54 43h4M62 43h3M74 43h3M82 43h8M44 44h4M54 44h4M62 44h4M73 44h4M83 44h6M44 45h4M54 45h4M62 45h4M73 45h4M44 46h5M53 46h5M63 46h4M73 46h4M44 47h5M53 47h4M63 47h4M73 47h4M45 48h4M53 48h4M63 48h5M73 48h4M45 49h12M64 49h5M73 49h4M46 50h10M65 50h4M72 50h4M47 51h8M66 51h10M49 52h5M67 52h8M68 53h6" />
</svg>