<svg xmlns="http://www.w3.org/2000/svg" viewBox="0 -0.5 75 100" shape-rendering="crispEdges">
<metadata>Made with Pixels to Svg https://codepen.io/shshaw/pen/XbxvNj</metadata>
<path stroke="#000000" d="M36 0h3M36 1h3M36 2h3M36 3h3M36 4h3M35 5h4M35 6h4M35 7h4M29 8h3M35 8h3M18 9h2M27 9h5M35 9h3M17 10h3M21 10h4M27 10h4M35 10h3M17 11h3M21 11h4M27 11h3M35 11h3M15 12h4M21 12h5M27 12h4M35 12h3M15 13h2M21 13h2M24 13h3M28 13h4M35 13h3M8 14h6M15 14h2M21 14h2M24 14h3M29 14h4M35 14h3M4 15h10M15 15h5M21 15h2M24 15h4M30 15h4M35 15h4M1 16h9M12 16h8M21 16h7M31 16h3M35 16h4M0 17h6M8 17h3M13 17h5M21 17h8M32 17h2M36 17h3M0 18h3M4 18h2M9 18h2M13 18h4M21 18h3M27 18h7M36 18h3M4 19h2M9 19h2M13 19h4M21 19h2M27 19h7M36 19h3M4 20h2M9 20h3M13 20h7M21 20h2M36 20h3M4 21h2M10 21h10M36 21h3M4 22h2M7 22h2M10 22h5M36 22h3M4 23h5M10 23h4M36 23h3M3 24h5M10 24h3M36 24h3M1 25h5M36 25h3M1 26h4M36 26h3M1 27h2M36 27h3M11 28h2M36 28h3M11 29h2M36 29h3M11 30h2M36 30h3M11 31h3M18 31h2M36 31h3M11 32h3M18 32h2M36 32h3M12 33h3M18 33h3M36 33h3M12 34h5M18 34h3M36 34h11M13 35h8M33 35h16M15 36h6M31 36h19M17 37h5M29 37h10M44 37h7M16 38h6M28 38h7M46 38h6M13 39h9M27 39h7M47 39h6M13 40h5M25 40h7M48 40h6M25 41h5M49 41h5M24 42h5M50 42h5M23 43h5M51 43h4M23 44h4M51 44h5M23 45h4M52 45h4M22 46h4M52 46h4M22 47h4M32 47h7M46 47h3M53 47h4M22 48h3M31 48h9M46 48h3M53 48h4M22 49h3M29 49h11M46 49h3M54 49h3M21 50h4M28 50h7M36 50h5M46 50h3M54 50h3M21 51h4M27 51h6M37 51h5M45 51h4M54 51h3M21 52h4M27 52h5M38 52h5M45 52h4M54 52h3M21 53h3M27 53h3M38 53h10M54 53h3M21 54h3M26 54h4M39 54h9M54 54h3M21 55h4M26 55h4M40 55h7M53 55h4M21 56h4M26 56h3M53 56h4M22 57h3M53 57h4M22 58h4M53 58h3M22 59h4M53 59h3M22 60h4M52 60h4M23 61h4M52 61h4M23 62h5M52 62h4M24 63h4M51 63h4M24 64h5M50 64h5M25 65h5M50 65h4M26 66h6M49 66h5M27 67h8M47 67h6M28 68h12M46 68h6M30 69h21M33 70h17M37 71h11M37 72h4M37 73h4M37 74h4M37 75h4M37 76h3M37 77h3M37 78h3M37 79h3M37 80h3M37 81h3M37 82h3M37 83h3M37 84h3M37 85h3M37 86h3M37 87h3M37 88h3M37 89h3M36 90h4M36 91h4M36 92h4M36 93h3M36 94h3M36 95h3M36 96h3M36 97h3M36 98h3M36 99h3" />
<path stroke="rgba(243,252,36,0.5764705882352941)" d="M40 28h4M46 28h4M40 29h11M28 30h4M39 30h12M27 31h7M39 31h12M27 32h9M39 32h12M27 33h9M39 33h17M27 34h9M47 34h9M24 35h9M49 35h7M22 36h9M50 36h9M22 37h7M51 37h9M22 38h6M52 38h8M22 39h5M53 39h7M18 40h7M54 40h7M17 41h8M54 41h7M17 42h7M55 42h6M17 43h6M59 43h2M17 44h6M60 44h1M16 45h7M15 46h7M60 46h1M15 47h7M60 47h2M15 48h7M60 48h2M15 49h7M59 49h3M15 50h6M57 50h5M18 51h3M57 51h5M18 52h3M57 52h5M18 53h3M57 53h5M18 54h3M57 54h6M18 55h3M57 55h6M17 56h4M57 56h6M17 57h5M57 57h6M17 58h5M56 58h7M17 59h5M56 59h6M17 60h5M56 60h5M16 61h7M56 61h4M16 62h7M56 62h4M16 63h8M55 63h5M16 64h8M55 64h5M16 65h9M54 65h5M19 66h7M54 66h5M19 67h8M53 67h6M19 68h9M52 68h6M19 69h11M51 69h6M22 70h11M50 70h7M22 71h15M48 71h9M22 72h15M41 72h16M22 73h15M41 73h16M25 74h12M41 74h12M25 75h5M31 75h4M36 75h1M41 75h12M36 76h1M40 76h8M36 77h1M40 77h5" />
<path stroke="rgba(241,252,37,0.6549019607843137)" d="M55 43h4M56 44h4M56 45h3M56 46h4M57 47h3M57 48h3M57 49h2" />
<path stroke="rgba(244,250,37,0.18823529411764706)" d="M59 45h1M52 47h1M52 48h1M53 49h1" />
</svg>