<svg xmlns="http://www.w3.org/2000/svg" viewBox="0 -0.5 225 100" shape-rendering="crispEdges">
<metadata>Made with Pixels to Svg https://codepen.io/shshaw/pen/XbxvNj</metadata>
<path stroke="#000000" d="M49 0h3M139 0h3M49 1h3M111 1h6M139 1h3M195 1h2M49 2h3M106 2h11M139 2h3M148 2h8M162 2h5M173 2h2M181 2h3M189 2h8M201 2h2M49 3h3M102 3h11M131 3h3M140 3h2M145 3h11M160 3h7M173 3h2M181 3h3M189 3h7M200 3h8M49 4h3M99 4h8M119 4h7M131 4h5M140 4h2M145 4h6M159 4h5M173 4h3M182 4h2M189 4h2M200 4h9M49 5h3M99 5h4M116 5h10M131 5h7M140 5h3M145 5h2M149 5h2M159 5h3M174 5h2M182 5h2M189 5h2M200 5h3M206 5h3M49 6h3M99 6h2M116 6h6M131 6h2M134 6h5M141 6h2M149 6h2M159 6h3M174 6h3M180 6h4M189 6h2M200 6h2M207 6h3M49 7h3M99 7h2M120 7h3M131 7h3M136 7h4M141 7h2M149 7h3M159 7h5M174 7h10M189 7h5M200 7h2M207 7h3M49 8h3M99 8h2M120 8h3M131 8h3M137 8h7M150 8h2M160 8h7M174 8h10M189 8h5M200 8h2M208 8h2M49 9h3M85 9h12M99 9h2M121 9h2M131 9h3M138 9h6M150 9h2M163 9h6M174 9h3M182 9h2M189 9h4M199 9h3M208 9h2M49 10h3M84 10h13M99 10h2M121 10h2M132 10h2M139 10h5M150 10h10M165 10h5M175 10h2M182 10h2M189 10h2M199 10h2M208 10h2M49 11h3M83 11h3M99 11h2M104 11h9M121 11h2M132 11h3M141 11h3M146 11h14M167 11h4M175 11h2M182 11h2M189 11h2M199 11h2M208 11h2M49 12h3M82 12h3M99 12h14M118 12h12M132 12h3M146 12h7M161 12h4M168 12h3M175 12h2M182 12h3M189 12h2M198 12h3M207 12h3M49 13h3M81 13h4M99 13h7M118 13h12M133 13h3M161 13h10M175 13h2M182 13h3M189 13h7M198 13h3M206 13h3M49 14h3M81 14h3M100 14h2M133 14h3M163 14h6M183 14h2M189 14h7M198 14h2M204 14h5M49 15h3M81 15h2M100 15h2M134 15h2M194 15h14M48 16h4M78 16h2M81 16h2M100 16h2M194 16h11M48 17h4M78 17h2M81 17h2M100 17h2M145 17h7M48 18h3M78 18h8M100 18h3M145 18h9M48 19h3M78 19h8M100 19h3M145 19h11M48 20h3M79 20h5M150 20h8M48 21h3M79 21h4M115 21h6M152 21h7M48 22h3M113 22h8M154 22h5M48 23h3M111 23h10M155 23h6M47 24h4M110 24h7M118 24h3M132 24h4M156 24h5M47 25h4M107 25h9M118 25h3M132 25h6M157 25h5M47 26h3M105 26h9M118 26h3M132 26h7M158 26h6M47 27h3M104 27h9M117 27h4M134 27h7M159 27h5M47 28h3M102 28h8M117 28h4M135 28h6M160 28h5M47 29h3M72 29h14M101 29h7M117 29h3M137 29h5M161 29h5M47 30h3M72 30h15M100 30h7M117 30h3M138 30h5M162 30h5M47 31h3M72 31h15M99 31h6M117 31h3M139 31h4M163 31h5M47 32h3M72 32h3M83 32h4M98 32h6M117 32h3M140 32h3M163 32h5M47 33h3M72 33h3M84 33h3M97 33h6M117 33h3M140 33h4M164 33h5M47 34h3M71 34h4M84 34h3M95 34h7M117 34h3M140 34h5M165 34h4M47 35h4M71 35h4M84 35h3M93 35h7M117 35h3M141 35h4M166 35h4M47 36h4M71 36h4M84 36h3M91 36h8M117 36h3M125 36h4M141 36h4M166 36h4M47 37h4M71 37h3M84 37h3M90 37h8M117 37h3M125 37h6M142 37h4M167 37h4M48 38h3M71 38h3M84 38h3M88 38h8M117 38h3M125 38h6M142 38h5M167 38h4M48 39h4M71 39h3M84 39h10M117 39h3M126 39h5M143 39h4M168 39h4M48 40h6M71 40h3M84 40h9M117 40h3M128 40h4M143 40h4M168 40h4M48 41h22M71 41h3M84 41h6M117 41h3M128 41h4M144 41h3M168 41h4M49 42h25M84 42h5M117 42h3M129 42h3M144 42h3M169 42h3M52 43h22M84 43h3M117 43h3M129 43h3M144 43h3M169 43h4M68 44h6M84 44h3M117 44h3M129 44h3M144 44h3M169 44h4M71 45h3M84 45h3M117 45h3M129 45h3M144 45h3M170 45h3M71 46h3M84 46h3M117 46h3M129 46h3M144 46h3M170 46h3M71 47h3M84 47h3M117 47h3M129 47h3M144 47h3M170 47h3M71 48h3M84 48h3M117 48h3M129 48h3M144 48h3M170 48h3M71 49h3M84 49h3M117 49h3M129 49h3M144 49h3M170 49h3M71 50h3M84 50h3M117 50h3M128 50h4M144 50h3M170 50h3M71 51h3M84 51h3M117 51h3M128 51h4M144 51h3M170 51h3M71 52h3M84 52h3M117 52h3M128 52h4M143 52h4M170 52h3M71 53h4M84 53h3M117 53h3M127 53h4M143 53h4M170 53h3M71 54h4M84 54h3M117 54h3M126 54h5M142 54h4M170 54h3M72 55h3M84 55h3M117 55h3M126 55h5M142 55h4M170 55h3M72 56h3M84 56h3M117 56h3M125 56h5M141 56h5M170 56h3M72 57h3M84 57h3M117 57h3M125 57h4M141 57h4M170 57h3M48 58h27M84 58h3M117 58h3M125 58h4M141 58h4M169 58h4M47 59h28M84 59h9M117 59h3M125 59h3M140 59h4M169 59h4M47 60h28M84 60h11M117 60h3M139 60h5M169 60h4M47 61h3M70 61h5M84 61h13M117 61h3M139 61h5M168 61h4M47 62h3M71 62h4M84 62h3M90 62h8M117 62h3M139 62h4M167 62h5M47 63h3M71 63h4M84 63h3M92 63h8M117 63h3M138 63h4M167 63h4M47 64h3M71 64h3M84 64h3M94 64h7M117 64h3M137 64h5M167 64h4M47 65h3M71 65h3M84 65h3M95 65h9M117 65h3M136 65h5M166 65h4M47 66h3M71 66h4M83 66h4M97 66h9M117 66h3M135 66h6M165 66h5M47 67h3M71 67h4M83 67h4M99 67h8M117 67h3M133 67h7M165 67h4M46 68h4M71 68h4M83 68h3M101 68h8M117 68h4M133 68h6M164 68h5M46 69h4M72 69h3M82 69h4M103 69h8M117 69h4M133 69h5M163 69h5M46 70h3M72 70h4M80 70h6M104 70h9M117 70h4M133 70h4M163 70h4M46 71h3M72 71h14M107 71h8M118 71h3M133 71h3M162 71h5M46 72h3M72 72h13M109 72h8M118 72h3M160 72h6M46 73h3M73 73h9M110 73h11M158 73h7M46 74h3M113 74h8M156 74h8M46 75h3M114 75h7M154 75h9M46 76h3M116 76h5M153 76h8M46 77h3M117 77h4M150 77h9M46 78h3M118 78h3M147 78h10M46 79h3M147 79h8M46 80h3M147 80h6M46 81h3M46 82h3M46 83h4M46 84h4M46 85h4M47 86h3M47 87h3M47 88h4M47 89h4M47 90h4M48 91h3M48 92h3M48 93h3M48 94h3M48 95h3M48 96h3M48 97h3M48 98h3M48 99h3" />
<path stroke="rgba(0,0,0,0.023529411764705882)" d="M97 9h1" />
<path stroke="rgba(0,0,0,0.07450980392156863)" d="M98 9h1" />
<path stroke="rgba(0,0,0,0.01568627450980392)" d="M97 10h1" />
<path stroke="rgba(0,0,0,0.08235294117647059)" d="M98 10h1" />
<path stroke="rgba(255,124,124,0.6588235294117647)" d="M116 17h6M112 18h12M110 19h15M108 20h17M107 21h8M121 21h4M105 22h8M121 22h4M103 23h8M121 23h4M70 24h16M101 24h9M121 24h4M68 25h21M99 25h8M121 25h4M67 26h23M96 26h9M121 26h4M67 27h24M95 27h9M121 27h4M67 28h24M93 28h9M121 28h4M67 29h5M86 29h15M120 29h5M67 30h5M87 30h13M120 30h5M67 31h5M87 31h12M120 31h5M67 32h5M87 32h11M120 32h5M67 33h5M87 33h10M120 33h5M67 34h4M87 34h8M120 34h5M67 35h4M87 35h6M120 35h5M67 36h4M87 36h4M120 36h5M67 37h4M87 37h3M120 37h5M67 38h4M87 38h1M120 38h5M67 39h4M120 39h5M67 40h4M120 40h5M70 41h1M120 41h5M120 42h5M120 43h5M67 44h1M120 44h5M67 45h4M120 45h5M67 46h4M120 46h5M67 47h4M120 47h5M67 48h4M120 48h5M67 49h4M120 49h5M67 50h4M120 50h5M67 51h4M120 51h5M67 52h4M120 52h5M66 53h5M120 53h5M66 54h5M120 54h4M66 55h6M120 55h4M66 56h6M120 56h4M66 57h6M120 57h4M120 58h4M120 59h4M120 60h4M66 61h4M120 61h4M66 62h5M87 62h3M120 62h4M66 63h5M87 63h5M120 63h4M66 64h5M87 64h7M120 64h4M66 65h5M87 65h8M120 65h4M66 66h5M87 66h10M120 66h4M66 67h5M87 67h12M120 67h4M66 68h5M86 68h5M93 68h8M121 68h3M66 69h6M86 69h5M95 69h8M121 69h3M66 70h6M86 70h5M96 70h8M121 70h3M66 71h6M86 71h5M98 71h9M121 71h4M67 72h5M85 72h6M100 72h9M121 72h4M67 73h6M82 73h9M101 73h9M121 73h4M67 74h24M102 74h11M121 74h4M68 75h22M104 75h10M121 75h4M69 76h21M105 76h11M121 76h4M70 77h19M107 77h10M121 77h4M78 78h7M109 78h9M121 78h4M112 79h13M113 80h12M115 81h9M116 82h7M118 83h4" />
</svg>