<svg xmlns="http://www.w3.org/2000/svg" viewBox="0 -0.5 225 75" shape-rendering="crispEdges">
<metadata>Made with Pixels to Svg https://codepen.io/shshaw/pen/XbxvNj</metadata>
<path stroke="#000000" d="M0 36h30M0 37h37M0 38h43M28 39h18M34 40h13M40 41h7M43 42h5M44 43h4M45 44h3M45 45h4M45 46h4M46 47h3M46 48h3M46 49h4M46 50h4M47 51h3M47 52h3M47 53h3M47 54h3M47 55h3M47 56h3M47 57h3M47 58h3M47 59h4M47 60h4M47 61h4M48 62h3M48 63h4M48 64h4M48 65h4M49 66h3M49 67h3M49 68h3M49 69h3M49 70h3M49 71h3M49 72h3M49 73h3M49 74h3" />
</svg>