<svg xmlns="http://www.w3.org/2000/svg" viewBox="0 -0.5 100 100" shape-rendering="crispEdges">
<metadata>Made with Pixels to Svg https://codepen.io/shshaw/pen/XbxvNj</metadata>
<path stroke="#000000" d="M27 3h5M25 4h3M32 4h3M24 5h2M34 5h1M23 6h2M34 6h2M15 7h5M22 7h2M35 7h1M13 8h3M19 8h2M22 8h1M35 8h1M13 9h1M20 9h3M35 9h1M13 10h1M21 10h2M34 10h2M13 11h1M21 11h2M34 11h1M13 12h1M34 12h1M13 13h1M33 13h7M13 14h1M33 14h2M39 14h2M13 15h1M40 15h2M13 16h1M41 16h1M13 17h2M41 17h1M14 18h1M42 18h1M14 19h2M26 19h4M41 19h2M15 20h2M25 20h3M31 20h1M39 20h3M16 21h1M23 21h1M32 21h1M40 21h4M17 22h1M33 22h1M43 22h1M17 23h3M34 23h1M43 23h1M19 24h2M42 24h2M35 25h1M42 25h1M41 26h2M35 27h6M22 30h12M23 31h11M37 31h1M25 32h5M17 33h2M25 33h5M15 34h3M25 34h5M12 35h4M25 35h5M38 35h1M10 36h3M17 36h1M25 36h5M8 37h3M26 37h3M8 38h10M10 39h3M64 39h1M69 39h1M12 40h2M39 40h1M63 40h1M14 41h3M16 42h2M62 42h1M70 42h1M40 44h1M41 46h1M42 47h1M78 47h1M43 48h1M59 48h1M69 48h1M45 49h1M58 49h1M70 49h1M47 50h3M69 50h1M19 51h1M51 51h1M20 55h1M84 55h1M61 56h1M77 56h1M85 56h1M62 57h1M21 58h1M51 58h1M46 59h4M60 60h1M22 61h1M62 61h1M23 64h1M24 65h1M60 65h2M62 66h1M81 66h1M25 67h1M63 67h1M26 69h1M27 71h1M29 72h1M44 72h1M30 73h1M46 73h6M32 74h1M34 75h2M37 76h2M42 77h1M40 78h1M46 78h6M59 78h1M40 79h1M59 79h1M40 80h1M59 80h1M40 81h1M59 81h1M40 82h1M59 82h1M40 83h2M59 83h1M40 84h1M59 84h2M40 85h1M59 85h1M40 86h1M59 86h1M40 87h1M59 87h1M40 88h1M40 89h1M59 89h1M37 90h4M59 90h1M34 91h3M39 91h2M56 91h4M37 92h2M40 92h1M53 92h3M58 92h2M35 93h2M39 93h1M56 93h2M59 93h1M39 94h1M54 94h2M58 94h1M38 95h1M58 95h1M57 96h1" />
<path stroke="#c80505" d="M28 4h4M26 5h8M25 6h9M24 7h11M16 8h3M23 8h12M14 9h6M23 9h12M14 10h7M23 10h11M14 11h7M23 11h11M14 12h20M14 13h19M14 14h19M35 14h4M14 15h26M14 16h27M15 17h26M15 18h27M16 19h10M32 19h9M17 20h7M33 20h6M17 21h5M34 21h6M18 22h3M35 22h8M20 23h1M36 23h7M36 24h6M37 25h5M37 26h4" />
<path stroke="rgba(200,5,5,0.984313725490196)" d="M30 19h2M32 20h1M33 21h1M35 23h1M35 24h1M36 25h1M36 26h1" />
<path stroke="rgba(0,0,0,0.996078431372549)" d="M24 20h1M28 20h3M22 21h1M19 25h1M19 26h1M19 27h1M19 28h1M36 29h1M18 30h1M17 37h1M38 38h1M17 39h1M65 39h4M17 40h1M17 41h1M63 41h1M39 42h1M62 43h1M61 45h1M60 48h1M46 50h1M50 51h1M52 51h5M77 54h1M79 55h1M57 56h4M55 57h1M42 58h1M52 58h2M44 59h2M60 59h1M59 60h1M84 61h1M83 63h1M80 67h1M79 68h1M41 71h1M60 71h1M43 72h1M58 72h1M52 73h5M70 74h1M67 75h2M63 76h3M39 77h3M57 77h5M44 78h2M52 78h4" />
<path stroke="rgba(0,0,0,0.9921568627450981)" d="M24 21h1M22 22h1M35 26h1M36 28h1M18 31h1M37 33h1M18 34h1M18 35h1M38 37h1M38 39h1M69 40h1M39 41h1M17 43h1M39 43h1M70 43h1M62 44h1M70 45h1M18 46h1M61 46h1M70 46h1M18 47h1M75 47h3M18 48h1M73 48h1M18 49h1M44 49h1M71 49h1M78 49h1M57 50h1M68 50h1M78 50h1M78 51h1M78 52h1M19 53h1M78 53h1M77 55h1M80 55h4M56 56h1M76 56h1M78 56h1M54 57h1M85 58h1M85 59h1M85 60h1M58 61h1M61 61h1M84 62h1M62 63h1M61 64h1M82 64h1M78 69h1M77 70h1M28 72h1M42 72h1M75 72h1M45 73h1M73 73h1M31 74h1M71 74h1M33 75h1M43 78h1" />
<path stroke="#f3efec" d="M25 21h6M23 22h9M22 23h11M21 24h13M20 25h14M20 26h15M20 27h15M20 28h16M20 29h16M19 30h3M34 30h2M19 31h4M34 31h3M19 32h6M30 32h7M19 33h6M30 33h7M19 34h6M30 34h7M19 35h6M30 35h7M18 36h7M30 36h8M18 37h8M29 37h9M18 38h20M18 39h20M18 40h20M65 40h4M18 41h21M64 41h5M18 42h21M64 42h6M18 43h21M63 43h7M18 44h21M63 44h7M18 45h22M63 45h7M19 46h21M62 46h8M19 47h22M62 47h8M19 48h23M61 48h8M74 48h4M19 49h24M60 49h9M72 49h6M19 50h26M59 50h9M71 50h7M20 51h29M58 51h10M70 51h8M20 52h58M20 53h58M20 54h57M21 55h56M21 56h35M62 56h14M80 56h4M21 57h33M57 57h4M63 57h13M78 57h7M22 58h19M43 58h7M55 58h6M63 58h12M76 58h9M22 59h21M50 59h10M62 59h23M22 60h37M61 60h24M23 61h35M63 61h21M23 62h35M59 62h3M63 62h21M23 63h39M63 63h20M24 64h37M63 64h19M25 65h34M62 65h20M25 66h34M63 66h18M26 67h36M64 67h16M26 68h36M64 68h15M27 69h35M63 69h15M27 70h34M63 70h14M28 71h13M42 71h17M62 71h14M30 72h11M45 72h12M60 72h14M31 73h13M58 73h14M33 74h36M36 75h30M39 76h23M43 77h13" />
<path stroke="rgba(0,0,0,0.9764705882352941)" d="M31 21h1M32 22h1M33 23h1M34 25h1M64 40h1M63 42h1M62 45h1M59 49h1M58 50h1M70 50h1M69 51h1M50 58h1M61 58h2M61 59h1M59 61h2M62 64h1M60 66h2M63 68h1M62 70h1M61 71h1M59 72h1M69 75h1M66 76h1M62 77h1" />
<path stroke="rgba(0,0,0,0.9882352941176471)" d="M21 22h1M34 24h1M19 29h1M18 32h1M37 32h1M37 34h1M38 36h1M17 44h1M70 44h1M40 45h1M78 48h1M18 50h1M19 52h1M19 54h1M20 56h1M20 57h1M85 57h1M21 59h1M21 60h1M22 62h1M62 62h1M22 63h1M59 65h1M24 66h1M62 69h1M61 70h1M59 71h1M76 71h1M74 72h1M72 73h1M69 74h1M66 75h1M62 76h1" />
<path stroke="rgba(201,5,5,0.9725490196078431)" d="M34 22h1" />
<path stroke="rgba(0,0,0,0.984313725490196)" d="M21 23h1M36 30h1M17 45h1M75 58h1M25 68h1M26 70h1M57 72h1" />
<path stroke="rgba(0,0,0,0.011764705882352941)" d="M37 28h1M37 29h1M38 31h1M78 55h1" />
<path stroke="rgba(0,0,0,0.00392156862745098)" d="M18 29h1M85 62h1M82 66h1M80 69h1M79 70h1M78 71h1M77 72h1" />
<path stroke="rgba(0,0,0,0.0196078431372549)" d="M37 30h1M64 38h1M63 39h1M62 41h1M41 44h1M61 44h1M71 44h1M71 45h1M71 46h1M59 47h1M79 47h1M58 48h1M79 48h1M79 49h1M52 50h5M86 61h1" />
<path stroke="rgba(0,0,0,0.01568627450980392)" d="M38 32h1M38 33h1M39 35h1M39 36h1M39 37h1M39 38h1M70 39h1M40 40h1M70 40h1M40 41h1M40 42h1M71 42h1M71 43h1M71 47h1M45 48h1M47 49h3M57 49h1M51 50h1M56 78h1" />
<path stroke="rgba(0,0,0,0.023529411764705882)" d="M38 34h1M65 38h5M39 39h1M74 46h1M60 47h1M72 47h1M70 48h2M79 50h1M79 51h1M79 52h1M79 53h1M86 56h1M86 57h1M86 58h1M86 59h1M86 60h1M85 63h1M82 67h1" />
<path stroke="#c86a05" d="M16 35h2M13 36h4M11 37h6M13 39h4M14 40h3" />
<path stroke="rgba(0,0,0,0.9725490196078431)" d="M37 35h1M38 40h1M69 41h1M74 47h1M72 48h1M61 57h1M41 58h1M62 68h1M76 72h1M74 73h1M72 74h1" />
<path stroke="rgba(0,0,0,0.0392156862745098)" d="M70 41h1M50 50h1" />
<path stroke="rgba(0,0,0,0.027450980392156862)" d="M40 43h1M75 46h2M73 47h1" />
<path stroke="rgba(0,0,0,0.9686274509803922)" d="M39 44h1M61 47h1M18 51h1M78 54h1M19 55h1M79 56h1M77 57h1M20 58h1M43 59h1M21 61h1M85 61h1M58 62h1M84 63h1M83 64h1M62 67h1M81 67h1M80 68h1M79 69h1M78 70h1M77 71h1" />
<path stroke="rgba(0,0,0,0.03137254901960784)" d="M41 45h1M42 46h1M77 46h2M43 47h1M44 48h1M80 54h5" />
<path stroke="rgba(0,0,0,0.9647058823529412)" d="M40 46h1M41 47h1M70 47h1M42 48h1M43 49h1M22 64h1M23 65h1M24 67h1M36 76h1M56 77h1" />
<path stroke="rgba(0,0,0,0.03529411764705882)" d="M46 49h1" />
<path stroke="rgba(0,0,0,0.9803921568627451)" d="M69 49h1M57 51h1M56 57h1M54 58h1M57 73h1" />
<path stroke="rgba(0,0,0,0.9607843137254902)" d="M45 50h1M49 51h1M82 65h1M25 69h1M26 71h1M27 72h1" />
<path stroke="rgba(0,0,0,0.9529411764705882)" d="M68 51h1M41 72h1M44 73h1M42 78h1" />
<path stroke="rgba(0,0,0,0.050980392156862744)" d="M79 54h1M85 55h1" />
<path stroke="rgba(0,0,0,0.9450980392156862)" d="M84 56h1" />
<path stroke="rgba(0,0,0,0.9490196078431372)" d="M76 57h1M59 66h1" />
<path stroke="rgba(0,0,0,0.9568627450980393)" d="M29 73h1M30 74h1M32 75h1M38 77h1M59 88h1" />
<path stroke="rgba(0,0,0,0.00784313725490196)" d="M75 73h1M73 74h1M70 75h1M67 76h1M63 77h1M56 92h1" />
</svg>