<svg xmlns="http://www.w3.org/2000/svg" viewBox="0 -0.5 45 45" shape-rendering="crispEdges">
<metadata>Made with Pixels to Svg https://codepen.io/shshaw/pen/XbxvNj</metadata>
<path stroke="#c80505" d="M18 0h1M18 1h9M18 2h11M18 3h1M28 3h6M33 4h4M36 5h2M37 6h2M38 7h2M39 8h2M40 9h2M41 10h2M42 11h1M42 12h2M43 13h1M43 14h1M43 15h2M44 16h1M44 17h1M44 18h1M44 19h1M44 20h1M44 21h1M44 22h1M44 23h1M44 24h1M44 25h1M44 26h1M44 27h1M43 28h2M43 29h1M43 30h1M42 31h2M40 32h2M34 33h7M34 34h4" />
<path stroke="#999999" d="M15 1h3M12 2h5M10 3h1M9 4h2M8 5h2M7 6h2" />
<path stroke="#000000" d="M4 6h1M4 7h4M6 8h4M5 9h3M9 9h2M5 10h2M4 11h2M4 12h2M3 13h2M3 14h2M2 15h2M2 16h2M2 17h2M2 18h1M14 18h15M2 19h1M12 19h3M28 19h4M2 20h1M11 20h3M31 20h2M2 21h2M11 21h1M13 21h1M32 21h2M3 22h1M11 22h1M13 22h1M18 22h12M33 22h2M3 23h1M11 23h1M13 23h1M18 23h1M29 23h2M34 23h1M3 24h2M11 24h1M13 24h2M18 24h1M22 24h1M24 24h1M26 24h1M30 24h2M34 24h2M4 25h1M11 25h1M14 25h1M18 25h3M31 25h1M35 25h1M4 26h2M12 26h1M14 26h1M20 26h12M35 26h2M5 27h1M12 27h1M14 27h2M36 27h2M5 28h3M12 28h1M15 28h2M20 28h2M23 28h2M26 28h2M29 28h2M32 28h2M37 28h1M7 29h1M12 29h2M16 29h2M37 29h2M8 30h1M13 30h1M17 30h2M22 30h5M29 30h5M38 30h1M8 31h4M13 31h2M18 31h1M38 31h2M11 32h11M39 32h1M15 33h1M19 33h10M15 34h2M20 34h1M26 34h3M40 34h1M16 35h1M20 35h2M27 35h1M36 35h1M40 35h2M16 36h2M21 36h2M40 36h2M17 37h1M22 37h7M38 37h4M18 38h1M24 38h2M28 38h11M41 38h2M18 39h2M24 39h1M42 39h1M19 40h2M23 40h2M42 40h1M20 41h1M23 41h1M42 41h1M20 42h2M23 42h2M41 42h2M21 43h4M39 43h3M23 44h17" />
<path stroke="#efd334" d="M15 19h13M14 20h17M12 21h1M14 21h18M12 22h1M14 22h4M30 22h3M12 23h1M14 23h4M31 23h3M12 24h1M15 24h3M32 24h2M12 25h2M15 25h3M32 25h3M13 26h1M15 26h5M32 26h3M13 27h1M16 27h20M13 28h2M17 28h3M22 28h1M25 28h1M28 28h1M31 28h1M34 28h3M14 29h2M18 29h19M14 30h3M19 30h3M27 30h2M34 30h4M15 31h3M19 31h19M22 32h17M16 33h3M29 33h5M17 34h3M21 34h5M29 34h5M38 34h2M17 35h3M22 35h5M28 35h8M37 35h3M18 36h3M23 36h17M18 37h4M29 37h9M19 38h5M26 38h2M39 38h2M20 39h4M25 39h17M21 40h2M25 40h17M21 41h2M24 41h18M22 42h1M25 42h16M25 43h14" />
<path stroke="#6b6262" d="M19 23h10M19 24h3M23 24h1M25 24h1M27 24h3M21 25h10" />
</svg>