<svg xmlns="http://www.w3.org/2000/svg" viewBox="0 -0.5 150 75" shape-rendering="crispEdges">
<metadata>Made with Pixels to Svg https://codepen.io/shshaw/pen/XbxvNj</metadata>
<path stroke="#000000" d="M40 9h5M40 10h6M40 11h6M39 12h7M39 13h7M39 14h7M39 15h7M39 16h6M39 17h6M39 18h6M39 19h6M28 20h5M39 20h6M28 21h6M39 21h6M28 22h6M39 22h6M28 23h6M39 23h6M28 24h6M39 24h6M28 25h6M39 25h6M28 26h6M39 26h6M17 27h5M28 27h6M39 27h6M17 28h6M28 28h6M39 28h6M17 29h6M28 29h6M39 29h6M17 30h6M28 30h6M39 30h6M17 31h6M28 31h6M39 31h6M17 32h6M28 32h6M39 32h6M17 33h6M28 33h6M39 33h67M17 34h6M28 34h6M39 34h75M17 35h6M28 35h6M39 35h77M17 36h6M28 36h6M39 36h78M17 37h6M28 37h6M39 37h78M17 38h6M28 38h6M39 38h78M17 39h6M28 39h6M39 39h6M103 39h14M17 40h6M28 40h6M39 40h6M110 40h6M17 41h6M28 41h6M39 41h6M17 42h6M28 42h6M39 42h6M17 43h6M28 43h6M39 43h6M17 44h6M27 44h7M39 44h6M17 45h6M27 45h7M39 45h6M18 46h4M27 46h7M39 46h6M27 47h7M39 47h6M27 48h7M39 48h6M27 49h6M39 49h6M27 50h6M39 50h6M27 51h6M39 51h6M27 52h6M39 52h6M27 53h6M39 53h6M27 54h6M39 54h6M28 55h4M39 55h6M39 56h6M39 57h6M39 58h6M39 59h6M40 60h4" />
</svg>