<svg xmlns="http://www.w3.org/2000/svg" viewBox="0 -0.5 150 75" shape-rendering="crispEdges">
<metadata>Made with Pixels to Svg https://codepen.io/shshaw/pen/XbxvNj</metadata>
<path stroke="#ffffff" d="M37 5h11M36 6h13M36 7h14M36 8h14M35 9h5M45 9h5M35 10h5M46 10h4M35 11h5M46 11h4M35 12h4M46 12h4M35 13h4M46 13h4M35 14h4M46 14h4M35 15h4M46 15h4M25 16h14M45 16h5M24 17h15M45 17h5M24 18h15M45 18h5M24 19h15M45 19h4M24 20h4M33 20h6M45 20h4M24 21h4M34 21h5M45 21h4M24 22h4M34 22h5M45 22h4M14 23h14M34 23h5M45 23h4M13 24h15M34 24h5M45 24h4M13 25h15M34 25h5M45 25h4M13 26h15M34 26h5M45 26h4M13 27h4M22 27h6M34 27h5M45 27h4M13 28h4M23 28h5M34 28h5M45 28h4M13 29h4M23 29h5M34 29h5M45 29h64M13 30h4M23 30h5M34 30h5M45 30h72M13 31h4M23 31h5M34 31h5M45 31h74M13 32h4M23 32h5M34 32h5M45 32h75M13 33h4M23 33h5M34 33h5M106 33h15M13 34h4M23 34h5M34 34h5M114 34h7M13 35h4M23 35h5M34 35h5M116 35h5M13 36h4M23 36h5M34 36h5M117 36h4M13 37h4M23 37h5M34 37h5M117 37h4M13 38h4M23 38h5M34 38h5M117 38h4M13 39h4M23 39h5M34 39h5M45 39h58M117 39h4M13 40h4M23 40h5M34 40h5M45 40h65M116 40h5M13 41h4M23 41h5M34 41h5M45 41h76M13 42h4M23 42h5M34 42h5M45 42h76M13 43h4M23 43h5M34 43h5M45 43h4M100 43h20M13 44h4M23 44h4M34 44h5M45 44h4M107 44h12M13 45h4M23 45h4M34 45h5M45 45h4M13 46h5M22 46h5M34 46h5M45 46h4M13 47h14M34 47h5M45 47h4M13 48h14M34 48h5M45 48h4M14 49h13M33 49h6M45 49h4M15 50h12M33 50h6M45 50h4M23 51h4M33 51h6M45 51h4M23 52h4M33 52h6M45 52h4M23 53h4M33 53h6M45 53h4M23 54h4M33 54h6M45 54h4M23 55h5M32 55h7M45 55h4M23 56h16M45 56h4M23 57h16M45 57h4M24 58h15M45 58h4M25 59h14M45 59h4M35 60h5M44 60h5M35 61h14M35 62h14M36 63h12M37 64h10" />
<path stroke="#000000" d="M40 9h5M40 10h6M40 11h6M39 12h7M39 13h7M39 14h7M39 15h7M39 16h6M39 17h6M39 18h6M39 19h6M28 20h5M39 20h6M28 21h6M39 21h6M28 22h6M39 22h6M28 23h6M39 23h6M28 24h6M39 24h6M28 25h6M39 25h6M28 26h6M39 26h6M17 27h5M28 27h6M39 27h6M17 28h6M28 28h6M39 28h6M17 29h6M28 29h6M39 29h6M17 30h6M28 30h6M39 30h6M17 31h6M28 31h6M39 31h6M17 32h6M28 32h6M39 32h6M17 33h6M28 33h6M39 33h67M17 34h6M28 34h6M39 34h75M17 35h6M28 35h6M39 35h77M17 36h6M28 36h6M39 36h78M17 37h6M28 37h6M39 37h78M17 38h6M28 38h6M39 38h78M17 39h6M28 39h6M39 39h6M103 39h14M17 40h6M28 40h6M39 40h6M110 40h6M17 41h6M28 41h6M39 41h6M17 42h6M28 42h6M39 42h6M17 43h6M28 43h6M39 43h6M17 44h6M27 44h7M39 44h6M17 45h6M27 45h7M39 45h6M18 46h4M27 46h7M39 46h6M27 47h7M39 47h6M27 48h7M39 48h6M27 49h6M39 49h6M27 50h6M39 50h6M27 51h6M39 51h6M27 52h6M39 52h6M27 53h6M39 53h6M27 54h6M39 54h6M28 55h4M39 55h6M39 56h6M39 57h6M39 58h6M39 59h6M40 60h4" />
</svg>