<svg xmlns="http://www.w3.org/2000/svg" viewBox="0 -0.5 75 75" shape-rendering="crispEdges">
<metadata>Made with Pixels to Svg https://codepen.io/shshaw/pen/XbxvNj</metadata>
<path stroke="#000000" d="M28 0h3M24 1h7M36 1h2M13 2h6M20 2h10M36 2h3M51 2h4M12 3h7M20 3h6M31 3h2M36 3h3M48 3h8M3 4h5M11 4h4M24 4h2M31 4h2M36 4h3M48 4h4M54 4h2M2 5h6M11 5h2M24 5h2M31 5h2M36 5h4M47 5h3M54 5h2M1 6h4M6 6h3M11 6h2M16 6h3M24 6h2M31 6h2M36 6h4M47 6h3M54 6h2M1 7h3M6 7h3M11 7h8M24 7h2M31 7h2M36 7h4M46 7h4M53 7h3M1 8h2M7 8h2M11 8h7M24 8h2M31 8h3M35 8h8M46 8h10M60 8h3M1 9h2M7 9h2M12 9h2M24 9h2M31 9h7M39 9h4M46 9h8M59 9h5M69 9h2M1 10h3M6 10h3M12 10h2M24 10h2M32 10h5M46 10h6M59 10h5M69 10h2M1 11h3M5 11h3M12 11h2M24 11h2M46 11h2M50 11h2M58 11h6M68 11h3M1 12h7M12 12h9M50 12h3M58 12h7M68 12h2M1 13h6M12 13h9M38 13h6M50 13h3M57 13h4M62 13h3M67 13h3M2 14h7M36 14h8M51 14h2M57 14h4M63 14h2M67 14h3M2 15h2M5 15h7M36 15h8M57 15h3M63 15h6M2 16h2M7 16h5M36 16h8M57 16h3M63 16h6M2 17h3M36 17h8M64 17h4M2 18h3M36 18h8M65 18h3M2 19h3M36 19h8M3 20h2M36 20h8M36 21h8M24 22h3M36 22h7M24 23h3M36 23h7M25 24h2M36 24h7M25 25h3M31 25h2M36 25h7M26 26h3M31 26h2M36 26h7M26 27h3M31 27h2M36 27h7M27 28h3M31 28h2M36 28h7M27 29h6M36 29h7M28 30h5M36 30h7M24 31h9M36 31h6M24 32h9M36 32h6M27 33h5M36 33h6M36 34h6M36 35h6M36 36h6M36 37h6M36 38h6M26 39h16M21 40h33M16 41h45M16 42h45M16 43h45M58 44h3M28 46h7M28 47h20M28 48h24M28 49h25M28 50h25M50 51h3M36 53h3M36 54h9M35 55h10M35 56h10M35 57h8" />
<path stroke="rgba(29,117,252,0.3764705882352941)" d="M38 9h1M43 9h3M45 10h1M34 11h1M34 12h1M47 12h1M47 13h1M47 14h2M47 15h2M47 16h2M33 17h1M47 17h2M33 18h1M47 18h2M33 19h1M47 19h2M33 20h1M47 20h2M33 21h1M47 21h2M33 22h1M47 22h2M33 23h1M47 23h1M33 24h1M47 24h1M33 25h1M47 25h1M33 26h1M47 26h1M33 27h1M46 27h2M46 28h2M46 29h2M46 30h1M46 31h2M46 32h2M46 33h2M30 34h2M46 34h2M29 35h2M46 35h2M28 36h3M48 36h1M58 36h1M25 37h3M63 37h5M13 38h2M66 38h2M13 39h2M67 39h1M13 40h2M67 40h1M67 41h1M67 42h1M67 43h1M13 48h1M55 48h6M14 49h13M55 49h5M17 50h10M55 50h5M55 51h4M55 52h3M28 53h1M29 54h4M48 54h4M29 55h4M48 55h2M30 56h3M30 57h3M47 57h1M31 58h2M47 58h1M32 59h1M33 60h2M45 60h1" />
<path stroke="rgba(83,149,253,0.611764705882353)" d="M37 10h8M35 11h11M35 12h12M34 13h4M44 13h3M34 14h2M44 14h3M34 15h2M44 15h3M34 16h2M44 16h3M34 17h2M44 17h3M34 18h2M44 18h3M34 19h2M44 19h3M34 20h2M44 20h3M34 21h2M44 21h3M34 22h2M43 22h4M34 23h2M43 23h4M34 24h2M43 24h4M34 25h2M43 25h4M34 26h2M43 26h4M34 27h2M43 27h3M33 28h3M43 28h3M33 29h3M43 29h3M33 30h3M43 30h3M33 31h3M42 31h4M33 32h3M42 32h4M32 33h4M42 33h4M32 34h4M42 34h4M31 35h5M42 35h4M31 36h5M42 36h6M49 36h9M28 37h8M42 37h21M15 38h21M42 38h24M15 39h11M42 39h25M15 40h6M54 40h13M13 41h3M61 41h6M13 42h3M61 42h6M13 43h3M61 43h6M13 44h45M61 44h6M13 45h15M33 45h33M13 46h14M35 46h7M53 46h13M13 47h14M54 47h9M14 48h13M52 48h3M27 49h1M53 49h2M27 50h1M53 50h2M27 51h7M41 51h1M47 51h3M53 51h2M27 52h6M41 52h1M48 52h7M29 53h4M41 53h1M48 53h5M33 54h3M45 54h3M33 55h2M45 55h3M33 56h2M45 56h3M33 57h2M43 57h4M33 58h14M33 59h14M35 60h10" />
<path stroke="rgba(170,199,255,0.3764705882352941)" d="M16 37h5M66 45h1M63 47h1M53 53h2" />
<path stroke="rgba(100,159,254,0.7568627450980392)" d="M28 45h5M27 46h1M42 46h11M27 47h1M48 47h6M27 48h1M34 51h7M42 51h5M33 52h8M42 52h6M33 53h3M39 53h2M42 53h6" />
</svg>